<?xml version="1.0" standalone="no"?>
<!DOCTYPE svg PUBLIC "-//W3C//DTD SVG 20010904//EN"
 "http://www.w3.org/TR/2001/REC-SVG-20010904/DTD/svg10.dtd">
<svg version="1.0" xmlns="http://www.w3.org/2000/svg"
 width="320.000000pt" height="320.000000pt" viewBox="0 0 320.000000 320.000000"
 preserveAspectRatio="xMidYMid meet">

<g transform="translate(0.000000,320.000000) scale(0.100000,-0.100000)"
fill="#000000" stroke="none">
<path d="M1320 2414 c-600 -71 -1055 -345 -1144 -690 -47 -183 13 -363 174
-524 98 -98 192 -163 335 -231 601 -284 1489 -241 2005 97 108 70 237 203 282
289 120 232 79 454 -122 655 -173 173 -415 293 -733 364 -242 54 -550 69 -797
40z m619 -59 c542 -79 954 -332 1033 -634 45 -174 -6 -332 -157 -487 -189
-193 -515 -330 -915 -385 -123 -17 -477 -17 -600 0 -400 55 -726 192 -915 385
-151 155 -202 313 -157 487 47 179 232 362 485 478 162 76 392 138 587 160 52
6 111 13 130 15 71 8 408 -4 509 -19z"/>
<path d="M1440 2187 c0 -120 -16 -240 -39 -292 -15 -34 -25 -43 -61 -54 -24
-7 -74 -13 -112 -13 -200 0 -318 186 -223 349 15 25 21 43 14 43 -25 0 -199
-64 -284 -105 -190 -92 -325 -208 -385 -329 -27 -54 -34 -83 -38 -146 -12
-204 119 -386 363 -509 75 -37 135 -63 135 -58 0 1 -14 29 -30 61 -55 107 -33
198 55 232 77 29 170 1 260 -78 25 -22 47 -39 48 -37 31 46 64 82 87 94 96 50
199 -23 311 -220 29 -52 56 -95 59 -95 3 0 23 34 45 76 79 151 184 254 257
254 37 0 107 -31 108 -48 1 -4 11 -20 25 -36 l23 -29 52 46 c53 48 139 87 191
87 43 0 92 -23 117 -55 43 -55 38 -134 -14 -217 -13 -21 -21 -38 -18 -38 20 0
205 96 258 134 215 153 297 382 207 573 -59 123 -177 229 -361 322 -107 54
-306 129 -316 119 -2 -3 8 -27 23 -53 64 -115 11 -261 -116 -317 -51 -24 -164
-26 -226 -6 -66 22 -87 92 -101 333 l-6 110 -23 -30 c-13 -16 -31 -47 -39 -69
l-16 -41 -71 2 -71 1 -31 63 c-47 93 -57 89 -57 -24z"/>
</g>
</svg>
