<?xml version="1.0" standalone="no"?>
<!DOCTYPE svg PUBLIC "-//W3C//DTD SVG 20010904//EN"
 "http://www.w3.org/TR/2001/REC-SVG-20010904/DTD/svg10.dtd">
<svg version="1.0" xmlns="http://www.w3.org/2000/svg"
 width="282.000000pt" height="362.000000pt" viewBox="0 0 282.000000 362.000000"
 preserveAspectRatio="xMidYMid meet">

<g transform="translate(0.000000,362.000000) scale(0.100000,-0.100000)"
fill="#000000" stroke="none">
<path d="M2632 3379 c-17 -263 -59 -415 -193 -698 -50 -105 -61 -123 -72 -110
-8 8 -44 51 -82 97 -87 104 -277 262 -380 315 -158 81 -313 123 -495 132 -113
6 -137 4 -245 -19 -129 -29 -231 -68 -351 -137 -95 -54 -219 -153 -269 -215
-22 -26 -54 -63 -72 -83 -18 -19 -40 -50 -50 -68 -10 -18 -23 -33 -29 -33 -12
0 -123 177 -172 276 -38 76 -68 163 -88 257 -16 76 -21 317 -8 404 10 70 -10
43 -35 -47 -65 -239 -95 -542 -88 -915 5 -316 24 -498 87 -865 21 -124 51
-306 65 -405 35 -235 79 -467 111 -585 14 -52 27 -96 28 -97 1 -1 46 -11 101
-22 324 -66 679 -235 936 -446 116 -96 112 -95 145 -54 98 119 290 287 363
317 9 4 46 24 82 45 114 64 305 130 576 197 25 6 44 17 47 28 6 22 32 236 51
432 17 172 57 479 80 610 8 47 20 130 26 185 6 55 13 114 15 130 38 274 51
773 26 1025 -15 148 -68 458 -86 504 -10 25 -13 2 -24 -155z m-692 -479 c12
-8 11 -10 -7 -10 -13 0 -23 5 -23 10 0 13 11 13 30 0z m404 -1762 c-35 -117
-135 -230 -256 -292 -70 -35 -82 -38 -164 -39 -98 -1 -191 9 -214 23 -13 8
-12 12 5 29 40 38 186 114 352 181 93 38 190 81 214 95 56 32 73 32 63 3z
m-1812 -44 c45 -20 169 -64 275 -99 179 -59 301 -115 310 -142 5 -15 -78 -41
-157 -49 -85 -8 -175 8 -245 43 -85 41 -221 173 -279 271 -11 19 6 15 96 -24z"/>
</g>
</svg>
