<?xml version="1.0" encoding="UTF-8" standalone="no"?>
<svg
   version="1.0"
   width="282.000000pt"
   height="362.000000pt"
   viewBox="0 0 282.000000 362.000000"
   preserveAspectRatio="xMidYMid meet"
   id="svg1"
   sodipodi:docname="batmask.svg"
   inkscape:version="1.4 (86a8ad7, 2024-10-11)"
   xmlns:inkscape="http://www.inkscape.org/namespaces/inkscape"
   xmlns:sodipodi="http://sodipodi.sourceforge.net/DTD/sodipodi-0.dtd"
   xmlns="http://www.w3.org/2000/svg"
   xmlns:svg="http://www.w3.org/2000/svg">
  <defs
     id="defs1" />
  <sodipodi:namedview
     id="namedview1"
     pagecolor="#ffffff"
     bordercolor="#000000"
     borderopacity="0.25"
     inkscape:showpageshadow="2"
     inkscape:pageopacity="0.0"
     inkscape:pagecheckerboard="0"
     inkscape:deskcolor="#d1d1d1"
     inkscape:document-units="pt"
     inkscape:zoom="1.7714088"
     inkscape:cx="188.83275"
     inkscape:cy="252.62378"
     inkscape:window-width="1920"
     inkscape:window-height="1057"
     inkscape:window-x="-8"
     inkscape:window-y="-8"
     inkscape:window-maximized="1"
     inkscape:current-layer="layer4" />
  <g
     transform="translate(0.000000,362.000000) scale(0.100000,-0.100000)"
     fill="#000000"
     stroke="none"
     id="g1"
     style="fill:#274443;fill-opacity:1">
    <path
       d="M2632 3379 c-17 -263 -59 -415 -193 -698 -50 -105 -61 -123 -72 -110 -8 8 -44 51 -82 97 -87 104 -277 262 -380 315 -158 81 -313 123 -495 132 -113 6 -137 4 -245 -19 -129 -29 -231 -68 -351 -137 -95 -54 -219 -153 -269 -215 -22 -26 -54 -63 -72 -83 -18 -19 -40 -50 -50 -68 -10 -18 -23 -33 -29 -33 -12 0 -123 177 -172 276 -38 76 -68 163 -88 257 -16 76 -21 317 -8 404 10 70 -10 43 -35 -47 -65 -239 -95 -542 -88 -915 5 -316 24 -498 87 -865 21 -124 51 -306 65 -405 35 -235 79 -467 111 -585 14 -52 27 -96 28 -97 1 -1 46 -11 101 -22 324 -66 679 -235 936 -446 116 -96 112 -95 145 -54 98 119 290 287 363 317 9 4 46 24 82 45 114 64 305 130 576 197 25 6 44 17 47 28 6 22 32 236 51 432 17 172 57 479 80 610 8 47 20 130 26 185 6 55 13 114 15 130 38 274 51 773 26 1025 -15 148 -68 458 -86 504 -10 25 -13 2 -24 -155z m-692 -479 c12 -8 11 -10 -7 -10 -13 0 -23 5 -23 10 0 13 11 13 30 0z m404 -1762 c-35 -117 -135 -230 -256 -292 -70 -35 -82 -38 -164 -39 -98 -1 -191 9 -214 23 -13 8 -12 12 5 29 40 38 186 114 352 181 93 38 190 81 214 95 56 32 73 32 63 3z m-1812 -44 c45 -20 169 -64 275 -99 179 -59 301 -115 310 -142 5 -15 -78 -41 -157 -49 -85 -8 -175 8 -245 43 -85 41 -221 173 -279 271 -11 19 6 15 96 -24z"
       id="path1"
       style="fill:#274443;fill-opacity:1" />
  </g>
  <g
     inkscape:groupmode="layer"
     id="layer3"
     inkscape:label="Layer 1">
    <g
       inkscape:groupmode="layer"
       id="layer1"
       inkscape:label="lyare"
       transform="matrix(0.75,0,0,0.75,-2.0442961,-0.46023287)">
      <path
         style="fill:#396564;fill-opacity:1"
         d="m 49.113449,222.98635 c -3.387134,-26.53255 1.693567,-50.24249 1.693567,-50.24249 l 12.419493,-27.09708 11.854971,-18.06472 20.322806,-20.88733 21.451854,-15.806623 28.22612,-11.85497 28.79064,-6.774269 25.96803,0.564522 27.09708,6.209747 19.19376,6.774269 22.01637,14.677584 19.19376,18.06472 16.37115,20.3228 13.54854,24.83899 7.33879,23.14542 1.12905,24.27446 -1.69357,4.51618 h -1.69357 l -9.03236,22.5809 -1.69356,-8.46784 -5.0807,10.72592 -3.95166,-6.77426 -9.59688,32.17777 -1.69357,-18.62924 -5.0807,11.29045 -7.33879,1.69357 2.82261,10.1614 -5.64522,-4.51618 -1.12905,6.20975 -3.38713,-8.46784 0.56452,14.11306 -5.0807,-5.64522 -3.95166,10.72593 -3.38713,-10.16141 -4.51618,5.64523 -2.25809,-6.20975 -1.12905,7.33879 -5.64522,-3.38713 -4.51618,21.45185 -3.95166,-12.98402 -3.38713,12.98402 -2.82261,-15.24211 -1.69357,16.37115 -3.38714,-7.90331 -1.69356,5.0807 -2.82261,-5.64522 v 3.95165 l -2.82262,-6.20974 -2.82261,6.20974 -2.82261,-2.82261 -4.51618,-16.37115 0.56452,15.80663 -6.77427,-10.72593 1.69357,9.59688 -4.51618,-5.0807 0.56452,10.16141 -5.0807,-2.82262 -0.56452,2.25809 -1.69357,-3.95165 -2.82261,-7.33879 -0.56452,6.20974 -3.95166,-3.38713 -2.82261,2.82261 -3.95166,-9.59688 1.12905,13.54854 -3.95166,-6.77427 -0.56452,4.51618 -4.51618,-3.95166 -2.25809,6.20975 -9.03236,-14.11306 -3.95166,12.41949 -1.12904,-8.46784 -5.0807,17.5002 -6.20975,-15.80663 v 12.98402 l -3.38713,-5.08071 -5.64523,6.77427 -0.56452,-14.67758 -2.82261,5.0807 -2.82261,-14.67758 -3.38714,11.29045 -0.56452,-12.4195 -3.95166,10.16141 -3.95165,-3.95166 -5.08071,6.77427 v -16.37115 l -2.82261,7.90331 -3.95166,-25.4035 -6.209741,19.75828 c 0,0 -4.51618,-18.62924 -3.951657,-16.37115 0.564522,2.25809 -4.51618,12.98401 -4.51618,12.98401 l -2.822612,-10.1614 -2.258089,3.38714 -3.387135,-6.77427 -2.258089,2.25809 -0.564523,-6.20975 -5.645224,3.38713 v -9.03235 l -2.258089,12.41949 -1.129045,-20.32281 -3.951657,14.67759 v -16.93568 l -7.338791,-5.0807 -2.822612,7.33879 z"
         id="path1-8" />
    </g>
    <g
       inkscape:groupmode="layer"
       id="layer4"
       inkscape:label="layer"
       transform="matrix(0.75,0,0,0.75,2.1880108,2.7076069)">
      <path
         style="fill:#396564;fill-opacity:1"
         d="m 196.4538,384.43976 2.82261,21.45185 0.56452,21.45185 -1.69357,16.93567 -5.0807,8.46784 -3.38713,-22.5809 3.38713,-21.45185 1.12905,-16.37115 z"
         id="path2" />
      <path
         style="fill:#4b8684;fill-opacity:1"
         d="m 274.11192,107.36124 -9.58026,-11.975331 -21.75518,-15.368338 -21.15641,-5.388898 8.9815,6.187254 10.97738,5.987663 3.5926,5.788076 8.78191,2.594654 9.77985,4.98973 z"
         id="path4"
         sodipodi:nodetypes="cccccccccc" />
    </g>
  </g>
</svg>
