<?xml version="1.0" encoding="UTF-8" standalone="no"?>
<svg
   version="1.0"
   width="470.000000pt"
   height="470.000000pt"
   viewBox="0 0 470.000000 470.000000"
   preserveAspectRatio="xMidYMid meet"
   id="svg43"
   sodipodi:docname="raven.svg"
   inkscape:version="1.4 (86a8ad7, 2024-10-11)"
   xmlns:inkscape="http://www.inkscape.org/namespaces/inkscape"
   xmlns:sodipodi="http://sodipodi.sourceforge.net/DTD/sodipodi-0.dtd"
   xmlns="http://www.w3.org/2000/svg"
   xmlns:svg="http://www.w3.org/2000/svg">
  <defs
     id="defs43" />
  <sodipodi:namedview
     id="namedview43"
     pagecolor="#ffffff"
     bordercolor="#000000"
     borderopacity="0.25"
     inkscape:showpageshadow="2"
     inkscape:pageopacity="0.0"
     inkscape:pagecheckerboard="0"
     inkscape:deskcolor="#d1d1d1"
     inkscape:document-units="pt"
     showgrid="false"
     inkscape:zoom="1.3643617"
     inkscape:cx="313.33333"
     inkscape:cy="254.69786"
     inkscape:window-width="1920"
     inkscape:window-height="1057"
     inkscape:window-x="-8"
     inkscape:window-y="-8"
     inkscape:window-maximized="1"
     inkscape:current-layer="svg43" />
  <g
     transform="matrix(0.1084941,0,0,-0.10414506,-25.041362,469.98342)"
     fill="#000000"
     stroke="none"
     id="g43"
     style="fill:#274544;fill-opacity:1">
    <path
       d="m 4523,4472 c -12,-32 -46,-54 -70,-45 -14,5 -73,-18 -73,-29 0,-8 41,2 58,15 7,5 15,7 18,4 9,-8 -16,-48 -26,-42 -5,3 -14,-4 -20,-15 -11,-20 -10,-21 9,-11 32,17 43,14 35,-11 l -6,-23 24,23 c 31,28 38,28 38,-1 0,-36 -27,-67 -59,-67 -36,0 -45,-10 -24,-25 20,-15 11,-31 -24,-40 -39,-9 -52,-22 -59,-61 -9,-49 -24,-57 -74,-39 -54,19 -90,19 -90,1 0,-8 -15,-19 -32,-26 -18,-7 -27,-14 -20,-17 7,-3 11,-21 10,-46 -1,-41 -1,-41 -6,-7 -3,28 -6,31 -12,15 -6,-18 -8,-18 -33,9 -20,22 -27,25 -27,12 0,-9 4,-16 9,-16 15,0 25,-41 22,-90 -1,-25 -4,-46 -6,-48 -2,-2 -10,11 -19,29 -12,24 -13,35 -5,45 8,10 8,14 1,14 -6,0 -14,9 -17,21 -5,16 -14,19 -38,17 -17,-2 -33,-9 -35,-17 -3,-8 0,-11 7,-7 7,5 9,1 5,-8 -6,-15 -17,-20 -40,-17 -6,1 -17,-6 -24,-14 -11,-13 -10,-14 4,-9 20,8 21,-4 0,-27 -8,-9 -18,-39 -22,-65 -7,-45 -11,-51 -62,-86 -70,-47 -130,-80 -130,-70 0,4 23,32 50,62 27,30 50,59 50,63 0,5 5,5 10,2 6,-3 10,3 10,14 0,11 4,22 9,25 4,3 6,16 4,30 -3,13 1,27 7,31 9,6 11,-4 7,-36 -5,-39 -4,-41 6,-19 7,14 16,31 21,39 14,22 13,71 -2,71 -7,0 -15,-7 -18,-15 -4,-8 -12,-15 -20,-15 -9,0 -14,-11 -14,-27 0,-41 -29,-83 -121,-173 -81,-81 -150,-127 -171,-114 -6,4 -8,3 -5,-3 10,-16 -140,-83 -182,-83 -14,0 -14,2 -1,10 12,8 12,10 -3,16 -15,6 -16,9 -4,23 30,35 34,56 5,28 -30,-29 -102,-80 -88,-63 14,17 13,18 -6,12 -13,-4 -26,-1 -34,8 -10,13 -8,20 9,42 22,27 29,60 11,49 -13,-8 -13,11 0,36 8,14 7,19 -3,19 -18,0 -76,-84 -84,-120 -5,-27 -26,-45 -41,-36 -4,2 -34,-23 -67,-55 -39,-38 -61,-54 -63,-44 -2,7 2,23 8,34 6,12 7,21 1,21 -9,0 -41,-71 -41,-93 0,-16 -46,-61 -63,-62 -22,-2 -47,-17 -41,-26 3,-5 -3,-10 -13,-11 -10,-1 -25,-2 -33,-3 -8,-1 -30,-9 -47,-18 -31,-16 -40,-16 -108,0 -16,3 -17,2 -5,-6 12,-8 7,-11 -22,-11 -21,0 -38,-4 -38,-10 0,-5 5,-10 12,-10 22,0 -1,-13 -29,-16 -18,-2 -35,5 -51,22 -14,13 -31,24 -38,24 -8,0 -26,14 -41,32 -16,17 -37,39 -48,49 -52,46 -69,59 -77,59 -4,0 -8,11 -8,24 0,25 -1,25 -35,10 -19,-7 -46,-14 -60,-14 -28,0 -105,-36 -117,-54 -4,-6 -8,-21 -8,-33 0,-19 4,-21 40,-16 56,8 70,-7 70,-73 0,-76 -13,-80 -136,-45 -139,40 -242,83 -348,145 -121,72 -260,171 -297,214 -24,27 -35,33 -55,28 -17,-5 -26,-2 -29,9 -16,51 -17,51 -26,28 -17,-46 -48,-18 -49,43 0,12 -9,32 -20,45 -19,22 -21,23 -31,6 -13,-22 -29,-13 -29,16 -1,20 -2,20 -11,5 -11,-20 -29,-24 -29,-7 0,5 5,7 12,3 7,-4 8,-3 4,4 -4,6 -14,8 -23,5 -10,-4 -14,-2 -10,4 6,9 -123,83 -170,98 -19,5 -22,3 -17,-12 3,-11 2,-14 -3,-8 -4,6 -23,21 -41,34 -19,13 -41,43 -53,72 -12,27 -26,49 -31,49 -5,0 -7,4 -4,9 4,5 3,11 -2,13 -4,1 -22,22 -40,45 -37,48 -148,109 -182,100 -11,-3 -20,-2 -20,3 0,4 -10,5 -23,3 -13,-3 -29,3 -39,14 -55,57 -98,108 -98,118 -1,17 -37,55 -54,55 -24,0 -106,-43 -106,-55 0,-13 20,-35 32,-35 4,0 5,7 1,16 -14,38 72,47 104,12 27,-31 83,-117 83,-128 0,-5 26,-28 59,-51 55,-39 59,-44 65,-93 4,-28 9,-64 12,-80 5,-38 43,-113 71,-139 12,-12 33,-33 47,-46 13,-13 26,-38 29,-55 10,-62 14,-69 48,-87 19,-10 28,-18 22,-19 -17,0 -16,-16 0,-32 11,-10 11,-15 2,-25 -12,-12 -72,-12 -91,0 -5,3 -27,8 -49,12 -22,4 -46,14 -52,23 -12,14 -13,14 -13,-5 0,-11 9,-28 20,-38 11,-10 22,-33 26,-51 3,-19 10,-34 15,-34 5,0 4,12 -1,26 -6,14 -10,30 -10,35 0,14 68,11 77,-5 4,-7 19,-19 32,-26 32,-17 12,-28 -42,-24 l -42,3 58,-27 c 42,-19 57,-32 57,-47 0,-20 14,-49 21,-44 14,10 47,-13 53,-36 9,-34 -9,-58 -25,-35 -8,11 -9,9 -4,-9 7,-22 9,-75 5,-96 -4,-20 0,-42 13,-58 10,-15 12,-6 12,54 0,90 14,104 72,73 32,-17 38,-25 36,-50 0,-16 1,-23 4,-16 9,22 23,2 23,-33 0,-43 -14,-51 -39,-26 -12,12 -27,18 -36,15 -22,-9 -19,-19 10,-32 27,-13 30,-19 15,-42 -7,-12 -12,-12 -29,4 -12,11 -21,16 -21,11 0,-8 61,-88 72,-93 4,-2 4,-10 1,-19 -5,-12 -11,-7 -24,18 -11,20 -18,27 -19,17 0,-9 4,-19 9,-22 5,-3 12,-17 15,-31 10,-40 -39,-105 -80,-105 -22,0 -36,-7 -48,-25 -15,-23 -23,-76 -9,-62 10,11 33,-13 33,-35 0,-10 4,-17 9,-13 15,8 25,-15 12,-28 -7,-7 -11,-7 -11,-1 0,6 -7,11 -15,11 -11,0 -12,-4 -4,-14 12,-13 65,-13 87,1 6,4 11,26 11,49 -1,83 -1,84 32,44 17,-21 35,-34 41,-31 5,4 1,15 -11,28 -12,12 -21,29 -21,38 0,18 47,28 79,16 14,-5 32,-1 55,11 33,19 34,19 29,0 -3,-10 0,-19 6,-19 6,0 11,-11 11,-25 0,-14 5,-25 11,-25 5,0 7,5 4,10 -9,15 11,12 24,-4 8,-10 9,-16 1,-21 -6,-3 -8,-11 -4,-16 3,-5 10,-7 15,-4 16,10 10,-7 -7,-20 -15,-10 -13,-13 15,-18 36,-8 37,-26 1,-45 -74,-38 -123,-72 -107,-72 11,0 44,16 75,34 62,38 112,55 112,38 0,-6 -4,-14 -10,-17 -20,-12 -10,-26 10,-15 18,9 23,7 22,-10 0,-3 11,-6 24,-6 13,-1 24,2 24,7 0,5 17,9 37,9 22,0 45,8 57,19 12,10 35,26 51,36 29,17 30,17 10,-1 -22,-21 -29,-65 -10,-57 7,2 24,19 39,38 27,34 87,62 106,50 16,-10 12,-41 -12,-81 l -21,-37 21,12 c 12,6 22,21 22,32 0,12 10,23 25,29 15,6 25,17 25,30 0,16 7,20 35,20 34,0 35,-1 29,-27 -4,-16 -11,-36 -15,-45 -13,-24 -11,-49 5,-80 13,-24 12,-35 -9,-100 -13,-40 -29,-99 -35,-130 -6,-32 -16,-58 -21,-58 -5,0 -21,-14 -36,-30 -14,-17 -28,-28 -30,-26 -3,2 9,30 26,63 16,32 36,75 45,96 15,36 14,40 -4,60 -20,20 -25,15 -21,-20 3,-21 -41,-113 -50,-107 -5,3 -9,-1 -9,-8 0,-10 -2,-10 -9,1 -6,10 -21,-6 -55,-59 -26,-40 -50,-70 -53,-67 -3,3 -15,-3 -27,-14 -51,-49 -133,-71 -160,-44 -20,20 -17,24 58,108 46,51 63,64 73,55 10,-8 13,-6 13,11 0,12 5,19 10,16 6,-3 10,3 10,14 0,12 5,21 11,21 5,0 8,4 4,10 -5,8 12,48 26,60 12,10 30,52 25,57 -3,4 -16,-7 -28,-23 -12,-16 -35,-42 -50,-57 -16,-16 -28,-33 -28,-38 0,-5 -33,-46 -73,-91 -84,-95 -97,-115 -97,-156 0,-27 4,-30 40,-35 22,-3 56,-1 77,3 21,5 39,7 41,5 6,-6 -27,-63 -40,-68 -10,-4 -9,-6 1,-6 8,-1 34,11 58,25 l 45,26 -6,-49 c -17,-153 -17,-176 -5,-225 18,-77 43,-127 87,-178 36,-40 38,-46 23,-57 -15,-11 -15,-12 1,-13 21,0 48,-37 48,-67 0,-12 -7,-29 -16,-37 -13,-14 -13,-16 0,-16 8,0 22,7 30,16 9,8 16,11 16,5 0,-19 68,-12 87,8 17,19 18,16 20,-67 3,-109 30,-191 93,-285 90,-137 185,-200 315,-211 76,-7 70,-3 132,-96 l 36,-54 -17,-66 c -9,-36 -31,-84 -47,-108 -37,-51 -51,-97 -43,-135 5,-22 10,-28 25,-24 10,3 22,1 25,-4 3,-5 -4,-9 -15,-9 -35,0 -26,-48 33,-167 30,-61 59,-136 66,-169 l 12,-58 20,24 c 16,20 19,38 17,115 -1,53 3,100 10,113 13,25 14,49 2,54 -20,7 -17,98 3,98 8,0 18,13 24,28 7,20 25,36 64,55 62,31 85,65 67,99 -9,17 -8,24 6,34 12,9 15,20 10,43 -7,34 -72,138 -100,161 -16,14 -17,13 -11,-7 4,-13 2,-24 -5,-29 -8,-5 -9,-3 -4,6 6,10 4,12 -7,8 -21,-9 -61,64 -61,112 0,52 9,62 44,55 20,-5 38,-1 54,9 26,17 35,42 11,33 -21,-8 -36,13 -30,43 12,57 -65,164 -121,170 -36,4 -55,0 -55,-11 0,-5 5,-7 12,-3 8,5 9,2 5,-9 -3,-10 -2,-17 3,-17 5,0 11,-9 15,-19 3,-11 20,-29 38,-40 27,-17 29,-21 14,-27 -10,-3 -38,-4 -62,0 -25,3 -66,8 -92,11 l -48,6 31,-14 c 17,-8 51,-18 75,-21 81,-13 99,-18 99,-27 0,-19 -40,-48 -81,-59 -31,-9 -39,-14 -28,-21 11,-7 9,-9 -7,-9 -14,0 -28,14 -44,43 -31,54 -54,74 -110,90 -40,13 -45,18 -52,52 -10,45 -7,60 13,61 68,5 73,7 28,13 -44,6 -46,7 -37,31 6,16 11,21 16,13 5,-7 32,-13 61,-14 50,-2 56,0 88,34 28,31 33,44 31,82 0,25 -5,45 -10,45 -5,0 -6,5 -3,10 3,6 15,10 26,10 16,0 17,3 8,18 -6,10 -24,25 -40,35 -16,9 -29,20 -29,25 0,18 119,35 198,29 117,-9 145,-27 65,-41 -40,-7 -125,-37 -121,-42 2,-1 31,3 66,11 64,13 176,13 225,0 32,-8 33,-13 10,-31 -17,-13 -17,-13 2,-13 11,0 31,6 45,14 14,8 39,14 56,15 17,0 46,10 65,23 35,23 100,111 98,131 -3,25 2,37 13,30 6,-4 8,-3 5,3 -3,5 5,29 19,52 13,24 18,39 11,32 -8,-6 -16,-8 -20,-5 -3,3 -13,-8 -22,-26 -13,-26 -21,-31 -40,-26 -13,3 -27,2 -30,-4 -9,-14 -68,-12 -87,2 -26,21 -60,153 -53,203 12,78 -40,187 -60,125 -7,-24 -15,-25 -40,-6 -17,12 -18,18 -7,53 6,21 21,48 32,60 23,26 45,106 27,100 -7,-2 -27,-33 -45,-70 -36,-71 -67,-100 -120,-112 -30,-6 -33,-5 -29,11 3,11 11,38 18,62 16,54 51,84 131,111 63,22 116,56 105,68 -3,3 -45,-13 -92,-37 -48,-23 -89,-39 -93,-35 -13,13 42,95 73,105 26,10 28,12 13,21 -21,12 -24,41 -4,33 7,-3 20,2 29,10 9,9 22,16 29,16 22,1 51,28 42,41 -4,8 -3,10 4,5 7,-4 12,-1 12,8 0,8 14,21 30,30 30,14 30,14 30,-13 0,-36 3,-38 44,-33 23,3 36,10 39,23 3,10 2,19 -3,19 -4,0 -15,11 -24,25 -15,23 -15,26 3,44 19,19 89,38 125,33 17,-2 45,-28 46,-43 0,-3 -20,-17 -44,-30 -49,-26 -52,-38 -8,-31 l 28,4 -4,-64 c -4,-55 -1,-66 18,-83 34,-31 103,-24 192,21 191,96 282,189 383,394 24,48 50,90 57,93 22,8 81,97 65,97 -15,0 -40,-23 -33,-31 2,-2 -5,-13 -15,-23 -13,-13 -19,-15 -19,-6 0,7 -12,-1 -27,-18 -16,-17 -44,-38 -63,-47 -19,-9 -53,-25 -74,-36 -28,-15 -41,-17 -46,-9 -5,9 -11,7 -21,-6 -8,-11 -25,-21 -39,-22 -21,-4 -23,-2 -10,13 7,9 17,37 22,63 12,69 15,85 20,102 3,8 3,12 1,7 -3,-4 -8,-5 -13,-2 -10,6 -53,-101 -70,-175 -15,-64 -34,-104 -26,-52 6,36 -3,42 -21,13 -29,-46 22,-94 77,-71 51,21 59,0 20,-52 -87,-113 -142,-153 -225,-165 -52,-7 -65,14 -15,24 l 31,6 -21,19 c -11,10 -20,27 -20,38 0,10 -6,21 -12,23 -10,4 -10,6 0,6 22,2 14,82 -15,140 l -28,54 23,15 c 12,8 22,25 22,39 0,14 7,26 18,29 49,15 85,37 89,54 3,11 11,16 19,13 8,-3 30,4 49,16 42,25 52,26 36,7 -7,-8 -8,-17 -3,-20 5,-3 14,6 20,19 7,14 16,25 22,25 6,0 31,14 55,30 24,17 48,30 54,30 5,0 14,6 18,13 12,20 94,59 114,54 10,-3 35,6 56,20 21,13 30,22 21,19 -26,-8 -22,11 9,37 14,12 42,37 61,55 18,17 38,30 42,27 5,-3 41,35 80,84 39,49 78,92 86,95 23,9 17,-30 -12,-80 -25,-43 -21,-61 7,-26 29,36 42,67 45,114 3,45 2,49 -16,43 -15,-5 -20,-2 -20,13 0,11 7,25 15,32 12,10 13,16 4,27 -15,17 12,50 57,69 33,14 71,50 40,38 -9,-3 -16,-1 -16,5 0,6 -9,11 -21,11 -30,0 -16,14 44,44 54,26 189,139 225,186 22,31 71,176 78,232 l 5,41 -33,-6 c -18,-3 -41,-8 -50,-12 -11,-4 -18,-3 -18,4 0,19 66,77 102,90 91,34 120,52 113,69 -3,9 -9,30 -12,45 -4,18 -9,24 -13,17 -14,-23 -20,38 -7,76 7,22 11,53 7,69 l -6,30 z M 653,4143 c 4,-2 7,-11 7,-19 0,-9 6,-14 13,-11 27,9 156,-161 145,-193 -2,-6 -15,-3 -32,5 -36,19 -43,14 -16,-10 42,-38 13,-62 -30,-25 -36,31 -44,23 -14,-15 15,-20 25,-38 22,-40 -12,-13 -80,19 -101,48 -29,38 -37,70 -43,156 -4,59 -3,63 16,58 28,-7 25,2 -12,35 l -33,29 35,-7 c 19,-3 38,-8 43,-11 z m 3519,-98 c -2,-19 -8,-32 -13,-29 -10,6 -12,48 -2,57 14,15 19,6 15,-28 z m -137,-76 c 5,-20 -2,-34 -31,-68 -21,-23 -50,-49 -66,-57 -28,-14 -29,-14 -25,8 7,52 61,122 88,116 9,-2 14,5 13,20 -1,28 12,16 21,-19 z m 168,-22 c -3,-5 -10,-4 -15,1 -6,6 -7,16 -3,22 6,9 9,9 16,-1 4,-7 5,-17 2,-22 z m -13,-20 c 16,4 20,0 20,-19 0,-14 5,-40 11,-58 9,-26 9,-34 -2,-41 -11,-7 -11,-11 -1,-17 20,-13 -28,-52 -52,-43 -18,7 -16,9 11,21 18,8 29,19 26,27 -3,7 -8,11 -12,8 -4,-2 -7,10 -6,28 1,17 -4,46 -11,64 -8,18 -14,36 -13,40 0,4 3,3 5,-3 3,-7 14,-10 24,-7 z m -128,-32 c 3,-13 -1,-33 -8,-44 -14,-19 -103,-76 -109,-69 -6,5 95,138 105,138 4,0 10,-11 12,-25 z M 838,3862 c 2,-12 -1,-22 -6,-22 -15,0 -34,28 -27,40 10,17 30,6 33,-18 z m 200,-40 c 12,-8 20,-17 18,-20 -9,-8 -64,19 -70,33 -6,16 15,10 52,-13 z m 3098,-20 c -18,-16 -18,-16 -6,6 6,13 14,21 18,18 3,-4 -2,-14 -12,-24 z m -3351,-2 c 3,-5 -1,-10 -10,-10 -9,0 -13,5 -10,10 3,6 8,10 10,10 2,0 7,-4 10,-10 z m 284,-27 c 36,-21 41,-43 8,-43 -31,0 -67,27 -61,45 8,19 16,19 53,-2 z m -194,-37 c 16,-12 17,-15 5,-16 -9,0 -31,14 -50,30 -35,31 -35,31 -5,16 17,-8 39,-21 50,-30 z m 3185,24 c 0,-5 -8,-10 -17,-10 -15,0 -16,2 -3,10 19,12 20,12 20,0 z m -170,-15 c 0,-2 -15,-12 -32,-20 l -33,-16 25,20 c 24,20 40,26 40,16 z m 234,-17 c -10,-13 -26,-27 -34,-33 -21,-14 -49,-14 -44,-1 6,16 66,56 83,56 11,0 10,-5 -5,-22 z M 805,3715 c 16,-13 27,-26 25,-29 -10,-9 -70,24 -70,39 0,21 10,19 45,-10 z m 3160,5 c -20,-22 -103,-62 -118,-57 -5,1 15,14 45,27 29,14 59,31 66,37 22,21 27,15 7,-7 z m -266,-34 c -2,-2 -15,-9 -29,-15 -24,-11 -24,-11 -6,3 16,13 49,24 35,12 z M 919,3666 c 30,-17 12,-30 -23,-16 -23,8 -26,7 -26,-10 0,-11 -5,-20 -10,-20 -6,0 -9,14 -8,30 3,34 25,39 67,16 z m 476,-73 c 31,-36 31,-40 -2,-46 -23,-4 -54,4 -71,19 -6,4 32,53 41,54 4,0 19,-12 32,-27 z m -560,-41 c -3,-3 -11,0 -18,7 -9,10 -8,11 6,5 10,-3 15,-9 12,-12 z m 2315,-6 c 0,-17 -102,-106 -122,-106 -16,0 21,57 62,94 39,35 60,39 60,12 z m 23,-53 c -7,-2 -19,-2 -25,0 -7,3 -2,5 12,5 14,0 19,-2 13,-5 z m -63,-39 c -8,-8 -23,-20 -34,-25 -15,-7 -13,-3 7,15 31,29 47,35 27,10 z M 1456,3158 c -9,-5 -16,-17 -16,-26 0,-21 -58,-88 -67,-78 -4,3 9,22 27,41 26,27 31,38 22,47 -9,9 -5,16 16,30 18,12 28,14 31,6 2,-6 -4,-15 -13,-20 z m 2294,12 c -8,-5 -22,-10 -31,-10 -9,0 -30,-16 -48,-35 -32,-36 -65,-45 -74,-22 -3,9 19,24 66,45 71,31 120,43 87,22 z M 1462,3004 c -16,-42 -22,-49 -44,-47 -21,1 -25,-2 -21,-18 3,-10 0,-26 -7,-34 -18,-22 -3,-32 23,-16 18,11 20,11 10,0 -19,-20 -15,-31 8,-24 33,11 21,-36 -13,-53 -16,-7 -28,-16 -28,-20 1,-17 30,-43 68,-60 l 41,-18 -27,-16 c -15,-9 -49,-23 -75,-32 -42,-14 -51,-14 -68,-2 -15,10 -17,16 -9,21 7,4 17,1 22,-6 8,-11 9,-10 4,3 -3,10 2,24 10,33 14,13 12,15 -19,15 -29,0 -41,7 -70,43 -39,48 -39,48 25,90 27,17 29,42 4,59 -6,4 -1,8 12,8 21,0 24,3 26,33 1,6 6,15 11,19 6,4 2,8 -8,8 -25,0 -20,53 5,58 13,2 16,-1 12,-12 -4,-11 2,-17 20,-21 77,-16 72,-17 87,28 8,23 15,35 17,26 1,-9 -5,-38 -16,-65 z m 2238,66 c 0,-5 -8,-10 -17,-10 -15,0 -16,2 -3,10 19,12 20,12 20,0 z m -2615,-50 c 3,-5 1,-10 -4,-10 -6,0 -11,5 -11,10 0,6 2,10 4,10 3,0 8,-4 11,-10 z m 221,-26 c -11,-43 -56,-84 -93,-84 -32,0 -73,37 -73,66 0,22 37,35 79,28 22,-3 47,-2 57,5 30,17 37,13 30,-15 z m 2124,1 c 0,-8 -4,-15 -9,-15 -13,0 -22,16 -14,24 11,11 23,6 23,-9 z m -2376,-95 c 21,-17 13,-25 -12,-11 -16,9 -21,7 -25,-11 -4,-14 -11,-19 -22,-14 -9,3 -23,-1 -32,-10 -19,-19 -23,-16 -16,17 7,40 73,58 107,29 z m 496,-80 c 0,-5 -4,-10 -10,-10 -5,0 -10,5 -10,10 0,6 5,10 10,10 6,0 10,-4 10,-10 z m -24,-27 c 32,-43 3,-69 -47,-43 -19,10 -19,12 -2,35 22,29 31,31 49,8 z m 1272,-13 c 7,-12 18,-18 25,-15 19,10 -56,-55 -78,-67 -18,-10 -18,-9 -7,4 8,10 10,26 6,44 -5,20 -2,30 11,41 25,17 28,17 43,-7 z m 842,-5 c 0,-14 -53,-53 -87,-63 -47,-14 -53,-15 -53,-4 0,11 61,43 71,37 5,-4 19,3 31,14 20,20 38,27 38,16 z m -1596,-61 c 3,-8 2,-12 -4,-9 -6,3 -10,10 -10,16 0,14 7,11 14,-7 z m 661,-4 c 3,-5 1,-10 -4,-10 -6,0 -11,5 -11,10 0,6 2,10 4,10 3,0 8,-4 11,-10 z m 165,-5 c -7,-9 -15,-13 -17,-11 -7,7 7,26 19,26 6,0 6,-6 -2,-15 z m 222,-22 c 35,-38 48,-89 34,-134 -13,-42 -25,-42 -51,-1 -24,38 -35,43 -107,51 l -57,6 32,36 c 34,38 81,68 108,69 8,0 27,-12 41,-27 z m 438,-18 c -7,-9 -15,-13 -17,-11 -7,7 7,26 19,26 6,0 6,-6 -2,-15 z m -1502,-28 c 3,-25 22,-39 22,-17 0,6 7,10 15,10 30,0 14,-18 -36,-39 -75,-31 -83,-29 -64,16 29,68 57,82 63,30 z m -71,-179 c 38,3 38,2 17,-40 -14,-28 -14,-30 0,-25 8,3 18,2 21,-3 4,-6 15,-10 26,-10 20,0 24,-16 10,-39 -7,-10 -3,-23 10,-39 10,-14 19,-31 19,-38 0,-8 6,-14 13,-14 19,0 40,-66 33,-106 -8,-39 -30,-45 -74,-17 -34,23 -57,49 -77,91 -9,17 -20,32 -24,32 -11,0 -33,59 -26,70 3,4 -5,10 -16,13 -15,4 -19,2 -15,-8 3,-8 1,-17 -5,-20 -18,-12 -22,26 -4,39 12,9 16,20 12,35 -7,29 20,94 35,85 7,-5 27,-7 45,-6 z m -140,-30 c -3,-8 -6,-5 -6,6 -1,11 2,17 5,13 3,-3 4,-12 1,-19 z m 571,-24 c 2,-17 14,-38 30,-51 25,-22 26,-23 6,-23 -24,0 -47,23 -49,48 -1,10 -5,28 -9,41 -6,17 -5,22 5,19 8,-3 15,-18 17,-34 z m -548,-87 c 10,-28 18,-36 32,-32 26,9 54,-49 39,-82 -6,-14 -8,-29 -5,-35 4,-7 2,-8 -5,-4 -6,4 -19,-1 -29,-10 -16,-17 -16,-18 1,-11 9,3 17,2 17,-3 0,-5 -7,-10 -16,-12 -11,-2 -1,-16 35,-49 28,-26 51,-44 51,-40 0,3 7,-3 15,-13 8,-11 15,-37 15,-58 0,-30 7,-45 28,-64 21,-21 27,-35 27,-70 0,-56 -16,-57 -65,-4 -20,22 -44,40 -52,40 -23,0 -33,17 -61,95 -13,39 -34,86 -45,105 -55,91 -63,139 -41,256 12,63 31,88 39,51 3,-12 12,-39 20,-60 z m 385,22 c 20,-12 39,-19 42,-15 10,10 43,-25 43,-46 0,-22 18,-23 44,-3 11,8 34,14 50,14 28,-2 28,-2 6,-6 -14,-3 -29,-8 -33,-13 -5,-4 4,-5 20,-3 26,4 25,3 -12,-20 -40,-25 -138,-59 -208,-71 l -38,-7 6,63 c 6,55 28,128 40,128 2,0 20,-10 40,-21 z m -92,-76 c -9,-62 -20,-72 -31,-29 -13,45 -7,66 18,66 16,0 18,-6 13,-37 z m 447,-24 c -12,-41 -48,-89 -68,-90 -9,0 -28,-2 -42,-5 -81,-14 -189,-35 -214,-40 -25,-6 -27,-5 -18,12 6,11 27,25 49,33 21,7 57,27 81,42 24,16 47,29 51,29 5,0 20,9 33,20 19,14 34,18 61,13 29,-4 37,-2 47,17 16,31 31,7 20,-31 z m -874,-54 c -3,-14 2,-50 10,-81 15,-58 19,-102 7,-91 -3,4 -13,1 -21,-5 -11,-10 -17,-8 -29,7 -8,11 -11,29 -8,40 18,59 25,102 21,121 -5,19 0,27 22,33 1,1 0,-10 -2,-24 z m -76,-15 c 0,-10 5,-22 11,-26 8,-4 9,-25 5,-59 -5,-49 -4,-53 27,-83 18,-18 37,-29 43,-25 5,5 0,-3 -11,-16 -24,-28 -64,-49 -87,-44 -9,2 -19,-1 -23,-7 -9,-15 5,-71 16,-65 5,3 3,14 -3,25 -18,28 3,48 25,26 13,-14 17,-14 24,-3 11,19 51,39 63,32 6,-3 14,4 19,17 31,80 27,77 46,34 9,-21 23,-45 30,-52 38,-39 69,-195 49,-248 -8,-21 -24,-20 -25,2 0,14 -2,14 -8,-3 -5,-11 -25,-25 -47,-32 -21,-6 -31,-12 -21,-12 20,-1 23,-33 4,-49 -7,-6 -22,-9 -32,-7 -11,2 -27,4 -35,4 -8,1 -22,6 -30,11 -13,9 -13,11 0,20 11,7 4,10 -26,10 -35,0 -47,6 -73,35 -49,56 -65,129 -65,287 l 1,137 52,60 c 52,60 71,68 71,31 z m 356,-50 c 49,-85 52,-95 24,-80 -11,6 -20,20 -20,31 0,25 -38,81 -50,74 -9,-5 -20,18 -20,42 0,30 24,5 66,-67 z m 547,-7 c -3,-10 -20,-41 -36,-70 -39,-66 -87,-91 -141,-73 -31,10 -34,14 -26,30 12,22 72,65 145,104 59,31 66,32 58,9 z m -598,-4 c 11,-17 -1,-21 -15,-4 -8,9 -8,15 -2,15 6,0 14,-5 17,-11 z m 225,-9 c 12,-8 11,-10 -7,-10 -13,0 -23,5 -23,10 0,13 11,13 30,0 z m 220,-215 c 0,-9 -9,-15 -25,-15 -24,0 -32,10 -18,23 12,13 43,7 43,-8 z m -440,-72 c 0,-7 4,-13 10,-13 14,0 52,-78 48,-98 -2,-11 -17,-19 -43,-23 -22,-4 -41,-6 -41,-5 -1,0 -4,40 -7,88 -4,83 -4,86 14,75 11,-7 19,-17 19,-24 z m 727,-37 c 41,-41 92,-125 94,-155 0,-12 3,-11 9,4 l 9,20 v -20 c 0,-33 -13,-52 -34,-50 -11,2 -67,10 -125,19 -141,21 -245,26 -354,16 -92,-9 -116,-4 -116,26 0,8 12,19 26,24 20,8 25,15 21,31 -6,23 18,115 33,124 14,9 41,-8 121,-75 65,-55 129,-84 146,-66 4,3 -3,6 -14,6 -11,0 -30,11 -43,25 -13,14 -18,25 -11,25 8,0 9,5 1,19 -5,11 -10,29 -10,41 0,20 4,21 38,15 22,-3 52,0 77,9 54,19 82,11 132,-38 z m -679,-128 c -20,-30 -48,-36 -48,-10 0,21 12,30 44,31 17,1 17,-1 4,-21 z m 968,-50 c 4,-6 3,-8 -4,-5 -5,4 -22,-13 -36,-37 -14,-25 -39,-51 -55,-59 l -29,-15 30,49 c 27,45 62,79 80,79 4,0 10,-5 14,-12 z m -566,-27 c -8,-5 -33,-12 -55,-15 l -40,-6 30,15 c 33,16 91,21 65,6 z m -160,-11 c 0,-5 -4,-10 -10,-10 -5,0 -10,5 -10,10 0,6 5,10 10,10 6,0 10,-4 10,-10 z m 515,-40 c -3,-5 -12,-10 -18,-10 -7,0 -6,4 3,10 19,12 23,12 15,0 z m -1055,-45 c 0,-8 -4,-15 -9,-15 -5,0 -11,7 -15,15 -3,9 0,15 9,15 8,0 15,-7 15,-15 z m 598,-123 c 2,-7 -3,-12 -10,-12 -8,0 -15,7 -15,15 0,18 19,15 25,-3 z m -12,-34 c -4,7 -1,12 8,12 10,0 13,-6 9,-15 -7,-19 -34,-16 -41,5 -5,13 -3,13 13,0 11,-9 16,-10 11,-2 z m -89,-290 c 27,-25 31,-47 6,-27 -17,13 -17,13 0,-7 9,-11 17,-26 17,-33 0,-21 -20,-1 -36,37 -8,20 -20,40 -27,44 -9,6 -8,8 2,8 8,0 25,-10 38,-22 z m 43,-108 c 0,-5 -4,-10 -10,-10 -5,0 -10,5 -10,10 0,6 5,10 10,10 6,0 10,-4 10,-10 z m 154,-32 c 18,-25 22,-78 6,-78 -15,0 -59,71 -53,86 8,21 30,17 47,-8 z m 169,-373 c -3,-8 -9,-15 -14,-15 -10,0 -12,24 -3,33 11,11 24,-3 17,-18 z m -223,-61 c 0,-18 -24,-28 -46,-20 -15,6 -15,8 1,26 18,20 45,17 45,-6 z"
       id="path1"
       style="fill:#274544;fill-opacity:1" />
    <path
       d="m 1410,2980 c -9,-6 -10,-10 -3,-10 6,0 15,5 18,10 8,12 4,12 -15,0 z"
       id="path2"
       style="fill:#274544;fill-opacity:1" />
    <path
       d="m 1355,2950 c -3,-5 -2,-10 4,-10 5,0 13,5 16,10 3,6 2,10 -4,10 -5,0 -13,-4 -16,-10 z"
       id="path3"
       style="fill:#274544;fill-opacity:1" />
    <path
       d="m 1340,2870 c -13,-9 -12,-12 4,-25 33,-25 44,-17 30,19 -7,19 -13,20 -34,6 z"
       id="path4"
       style="fill:#274544;fill-opacity:1" />
    <path
       d="m 1718,1623 c 7,-3 16,-2 19,1 4,3 -2,6 -13,5 -11,0 -14,-3 -6,-6 z"
       id="path5"
       style="fill:#274544;fill-opacity:1" />
    <path
       d="m 407,4355 c -4,-9 2,-19 13,-25 16,-8 20,-8 20,3 0,8 -6,20 -14,26 -10,9 -15,8 -19,-4 z"
       id="path6"
       style="fill:#274544;fill-opacity:1" />
    <path
       d="m 4320,4263 c -19,-8 -30,-17 -23,-20 11,-4 73,23 73,32 0,8 -13,5 -50,-12 z"
       id="path7"
       style="fill:#274544;fill-opacity:1" />
    <path
       d="m 526,4261 c -4,-5 3,-7 14,-4 23,6 26,13 6,13 -8,0 -17,-4 -20,-9 z"
       id="path8"
       style="fill:#274544;fill-opacity:1" />
    <path
       d="m 3924,4212 c -37,-31 -61,-102 -35,-102 11,0 21,25 21,55 0,24 22,49 33,38 4,-3 7,1 7,10 0,21 0,21 -26,-1 z"
       id="path9"
       style="fill:#274544;fill-opacity:1" />
    <path
       d="m 3910,4124 c 0,-8 49,-54 57,-54 4,0 -6,14 -22,30 -30,31 -35,35 -35,24 z"
       id="path10"
       style="fill:#274544;fill-opacity:1" />
    <path
       d="m 429,4096 c -1,-3 -2,-9 -4,-13 -1,-5 -5,-25 -9,-45 -5,-20 -15,-38 -23,-40 -12,-2 -11,-8 7,-30 23,-30 20,-48 -11,-48 -11,0 -19,-7 -19,-17 0,-28 13,-40 46,-45 30,-4 30,-3 18,21 -9,19 -10,39 -3,75 5,26 7,52 4,56 -3,5 0,21 7,35 11,24 16,26 50,21 21,-4 38,-4 38,-1 0,11 -99,42 -101,31 z"
       id="path11"
       style="fill:#274544;fill-opacity:1" />
    <path
       d="m 284,4076 c -4,-11 -1,-21 7,-27 17,-11 26,18 10,34 -7,7 -12,5 -17,-7 z"
       id="path12"
       style="fill:#274544;fill-opacity:1" />
    <path
       d="m 461,3991 c -8,-5 -10,-14 -6,-21 6,-9 10,-8 17,4 12,21 7,28 -11,17 z"
       id="path13"
       style="fill:#274544;fill-opacity:1" />
    <path
       d="m 3380,3836 c 0,-2 7,-7 16,-10 8,-3 12,-2 9,4 -6,10 -25,14 -25,6 z"
       id="path14"
       style="fill:#274544;fill-opacity:1" />
    <path
       d="m 560,3811 c 0,-5 12,-20 28,-33 17,-14 28,-35 30,-55 4,-37 -1,-39 -38,-18 -43,25 -56,18 -26,-14 33,-34 65,-45 98,-32 l 23,8 -23,7 c -23,8 -25,15 -13,56 5,17 2,30 -9,41 -24,24 -70,50 -70,40 z"
       id="path15"
       style="fill:#274544;fill-opacity:1" />
    <path
       d="m 1650,3770 c -12,-8 -11,-10 8,-10 18,0 22,-6 22,-30 0,-36 17,-40 26,-5 12,48 -17,70 -56,45 z"
       id="path16"
       style="fill:#274544;fill-opacity:1" />
    <path
       d="m 3510,3770 c 0,-5 5,-10 11,-10 5,0 7,5 4,10 -3,6 -8,10 -11,10 -2,0 -4,-4 -4,-10 z"
       id="path17"
       style="fill:#274544;fill-opacity:1" />
    <path
       d="m 655,3740 c -3,-5 -2,-10 4,-10 5,0 13,5 16,10 3,6 2,10 -4,10 -5,0 -13,-4 -16,-10 z"
       id="path18"
       style="fill:#274544;fill-opacity:1" />
    <path
       d="m 405,3715 c 49,-18 49,-18 34,-2 -7,7 -26,14 -43,15 -29,1 -29,1 9,-13 z"
       id="path19"
       style="fill:#274544;fill-opacity:1" />
    <path
       d="m 3270,3635 c -14,-8 -20,-14 -14,-15 5,0 19,7 30,15 24,18 16,19 -16,0 z"
       id="path20"
       style="fill:#274544;fill-opacity:1" />
    <path
       d="m 2110,3597 -35,-19 34,6 c 38,7 45,11 40,23 -2,4 -20,0 -39,-10 z"
       id="path21"
       style="fill:#274544;fill-opacity:1" />
    <path
       d="m 760,3590 c 20,-13 33,-13 25,0 -3,6 -14,10 -23,10 -15,0 -15,-2 -2,-10 z"
       id="path22"
       style="fill:#274544;fill-opacity:1" />
    <path
       d="m 1751,3529 c -13,-38 -14,-49 -2,-31 6,11 11,10 24,-3 13,-12 21,-14 37,-5 37,20 19,70 -26,70 -16,0 -25,-9 -33,-31 z"
       id="path23"
       style="fill:#274544;fill-opacity:1" />
    <path
       d="m 2010,3539 c 0,-5 10,-9 22,-9 12,0 18,3 14,7 -10,11 -36,12 -36,2 z"
       id="path24"
       style="fill:#274544;fill-opacity:1" />
    <path
       d="m 1950,3525 c 0,-2 10,-10 23,-16 20,-11 21,-11 8,4 -13,16 -31,23 -31,12 z"
       id="path25"
       style="fill:#274544;fill-opacity:1" />
    <path
       d="m 2010,3485 c -10,-12 -10,-15 3,-15 8,0 17,-7 21,-15 9,-24 22,-17 21,12 0,32 -25,42 -45,18 z"
       id="path26"
       style="fill:#274544;fill-opacity:1" />
    <path
       d="m 2773,3493 c 9,-2 25,-2 35,0 9,3 1,5 -18,5 -19,0 -27,-2 -17,-5 z"
       id="path27"
       style="fill:#274544;fill-opacity:1" />
    <path
       d="m 2835,3490 c -3,-5 1,-10 9,-10 9,0 16,5 16,10 0,6 -4,10 -9,10 -6,0 -13,-4 -16,-10 z"
       id="path28"
       style="fill:#274544;fill-opacity:1" />
    <path
       d="m 1813,3466 c -14,-25 3,-66 26,-65 10,0 12,2 4,6 -7,2 -13,9 -13,14 0,4 7,6 15,3 11,-5 13,-2 9,10 -3,9 -10,16 -14,16 -5,0 -10,8 -12,18 -3,16 -5,15 -15,-2 z"
       id="path29"
       style="fill:#274544;fill-opacity:1" />
    <path
       d="m 2517,3464 c -3,-4 -21,-10 -39,-15 l -33,-8 37,2 c 35,3 36,2 31,-24 -5,-24 -3,-27 16,-22 15,4 23,-1 30,-18 5,-13 10,-17 10,-9 1,8 -8,29 -19,47 -18,30 -18,33 -2,42 15,9 15,10 -4,11 -11,0 -23,-3 -27,-6 z"
       id="path30"
       style="fill:#274544;fill-opacity:1" />
    <path
       d="m 2853,3448 c -20,-26 -26,-41 -15,-34 12,7 36,46 29,46 -3,0 -9,-6 -14,-12 z"
       id="path31"
       style="fill:#274544;fill-opacity:1" />
    <path
       d="m 2891,3433 c 7,-10 15,-20 16,-22 2,-2 3,3 3,11 0,9 -7,19 -16,22 -15,6 -15,4 -3,-11 z"
       id="path32"
       style="fill:#274544;fill-opacity:1" />
    <path
       d="m 2561,3334 c 0,-11 3,-14 6,-6 3,7 2,16 -1,19 -3,4 -6,-2 -5,-13 z"
       id="path33"
       style="fill:#274544;fill-opacity:1" />
    <path
       d="m 3790,3118 c 0,-20 1,-21 20,-3 11,10 20,20 20,22 0,1 -9,3 -20,3 -14,0 -20,-7 -20,-22 z"
       id="path34"
       style="fill:#274544;fill-opacity:1" />
    <path
       d="m 3805,3039 c -10,-19 -22,-37 -27,-40 -6,-4 -6,-9 -1,-12 21,-13 68,49 53,72 -6,10 -13,5 -25,-20 z"
       id="path35"
       style="fill:#274544;fill-opacity:1" />
    <path
       d="m 3796,2965 c -9,-26 -7,-32 5,-12 6,10 9,21 6,23 -2,3 -7,-2 -11,-11 z"
       id="path36"
       style="fill:#274544;fill-opacity:1" />
    <path
       d="m 3559,2947 c 6,-8 7,-17 3,-22 -4,-4 2,-6 13,-3 11,2 21,11 23,21 3,13 -3,17 -23,17 -22,0 -25,-3 -16,-13 z"
       id="path37"
       style="fill:#274544;fill-opacity:1" />
    <path
       d="m 3266,2795 c 4,-8 8,-15 10,-15 2,0 4,7 4,15 0,8 -4,15 -10,15 -5,0 -7,-7 -4,-15 z"
       id="path38"
       style="fill:#274544;fill-opacity:1" />
    <path
       d="m 1060,2740 c 0,-4 14,-13 30,-19 17,-5 30,-7 30,-3 0,4 -13,13 -30,19 -16,6 -30,8 -30,3 z"
       id="path39"
       style="fill:#274544;fill-opacity:1" />
    <path
       d="m 1591,2544 c -24,-35 -29,-49 -21,-58 8,-8 9,-6 4,8 -5,14 -4,17 5,12 8,-5 17,6 28,33 9,22 20,38 26,34 6,-3 7,-1 3,5 -10,16 -8,17 -45,-34 z"
       id="path40"
       style="fill:#274544;fill-opacity:1" />
    <path
       d="m 1210,2540 c 0,-5 4,-10 9,-10 6,0 13,5 16,10 3,6 -1,10 -9,10 -9,0 -16,-4 -16,-10 z"
       id="path41"
       style="fill:#274544;fill-opacity:1" />
    <path
       d="m 1492,2240 c 0,-14 2,-19 5,-12 2,6 2,18 0,25 -3,6 -5,1 -5,-13 z"
       id="path42"
       style="fill:#274544;fill-opacity:1" />
    <path
       d="m 2242,1243 c -24,-9 -41,-17 -39,-19 6,-6 76,16 82,26 4,6 5,9 3,9 -2,-1 -22,-8 -46,-16 z"
       id="path43"
       style="fill:#274544;fill-opacity:1" />
  </g>
</svg>
