<?xml version="1.0" standalone="no"?>
<!DOCTYPE svg PUBLIC "-//W3C//DTD SVG 20010904//EN"
 "http://www.w3.org/TR/2001/REC-SVG-20010904/DTD/svg10.dtd">
<svg version="1.0" xmlns="http://www.w3.org/2000/svg"
 width="612.000000pt" height="574.000000pt" viewBox="0 0 612.000000 574.000000"
 preserveAspectRatio="xMidYMid meet">

<g transform="translate(0.000000,574.000000) scale(0.100000,-0.100000)"
fill="#000000" stroke="none">
<path d="M5237 4943 c-3 -5 -8 -22 -11 -40 -9 -39 -28 -56 -64 -55 -29 0 -82
-19 -82 -30 0 -8 41 2 58 15 7 5 15 7 18 4 9 -8 -16 -48 -26 -42 -5 3 -14 -4
-20 -15 -11 -20 -10 -21 9 -11 28 15 44 14 37 -4 -7 -19 -1 -19 29 1 24 16 25
16 25 -8 0 -36 -27 -68 -58 -68 -38 0 -60 -16 -33 -23 33 -8 25 -34 -13 -41
-40 -8 -54 -22 -62 -64 -9 -46 -23 -53 -69 -37 -52 18 -84 19 -91 1 -3 -8 -20
-19 -37 -25 -24 -9 -28 -14 -19 -23 7 -7 11 -28 11 -47 l-2 -36 -7 35 c-4 19
-8 26 -9 16 -1 -18 -4 -17 -31 9 -35 33 -37 29 -11 -17 14 -26 17 -44 12 -83
l-6 -50 -15 35 c-8 19 -15 40 -16 45 0 6 -4 20 -8 33 -6 19 -14 23 -39 20 -17
-2 -33 -9 -35 -17 -3 -8 0 -11 7 -7 7 5 9 1 5 -8 -3 -9 -14 -16 -24 -16 -26 0
-50 -10 -50 -21 0 -6 10 -5 21 2 24 13 20 0 -12 -36 -10 -11 -19 -40 -21 -65
-3 -42 -7 -47 -58 -82 -63 -44 -130 -81 -130 -73 0 15 109 132 113 122 2 -7 8
14 12 46 4 31 12 60 17 63 6 4 8 -8 5 -30 -3 -20 -1 -36 4 -36 5 0 9 9 9 19 0
11 4 22 9 25 15 10 19 76 4 76 -8 0 -16 -7 -19 -15 -4 -8 -12 -15 -20 -15 -9
0 -14 -11 -14 -27 0 -41 -31 -85 -124 -176 -67 -67 -102 -91 -182 -131 -54
-27 -111 -50 -125 -50 -15 -1 -25 -4 -22 -8 2 -5 -6 -8 -19 -7 -13 0 -17 3
-10 6 18 7 15 23 -5 23 -14 0 -12 4 7 25 24 26 23 46 -1 23 -30 -29 -103 -82
-90 -65 8 10 11 21 7 24 -4 4 -11 1 -16 -7 -7 -11 -11 -11 -24 -1 -14 12 -13
18 11 59 21 36 24 44 10 39 -19 -7 -22 5 -7 33 6 11 6 21 1 24 -12 8 -78 -85
-87 -121 -4 -15 -12 -32 -18 -36 -8 -6 -7 -10 2 -14 28 -11 1 -48 -75 -102
-51 -35 -43 1 12 56 25 25 42 50 39 55 -4 6 -36 -19 -71 -53 -66 -65 -75 -63
-48 6 7 18 6 18 -7 5 -9 -8 -24 -40 -33 -70 -16 -50 -43 -82 -70 -86 -5 -1
-21 -5 -33 -9 -17 -6 -20 -10 -11 -16 9 -5 4 -10 -15 -15 -19 -5 -31 -2 -37 7
-6 10 -9 10 -9 2 0 -7 -14 -20 -30 -28 -24 -13 -38 -14 -68 -5 -44 12 -65 12
-37 0 15 -7 10 -9 -24 -9 -36 -1 -41 -3 -32 -15 9 -11 8 -15 -5 -20 -9 -3 -19
-4 -24 -1 -4 3 -10 -2 -14 -10 -3 -8 -10 -15 -16 -15 -7 0 -8 6 -1 18 9 16 3
22 -37 42 -26 13 -55 34 -65 47 -32 40 -102 103 -114 103 -7 0 -13 11 -13 24
0 25 -1 25 -35 10 -19 -7 -46 -14 -60 -14 -28 0 -105 -36 -117 -54 -4 -6 -8
-21 -8 -33 0 -19 4 -21 40 -16 57 8 70 -7 70 -79 0 -40 -4 -60 -14 -64 -29
-11 -237 53 -362 112 -60 28 -71 37 -69 56 1 13 0 15 -2 6 -2 -10 -8 -18 -12
-18 -18 0 -250 161 -301 209 -43 40 -60 51 -78 46 -15 -4 -24 0 -27 10 -16 51
-17 51 -26 28 -17 -46 -48 -18 -49 43 0 12 -9 32 -20 45 -19 22 -21 23 -31 6
-13 -22 -29 -13 -29 16 -1 20 -2 20 -11 5 -11 -20 -29 -24 -29 -7 0 5 5 7 12
3 7 -4 8 -3 4 4 -4 6 -14 8 -23 5 -10 -4 -14 -2 -10 4 8 13 -171 106 -190 99
-23 -9 -69 33 -93 85 -13 27 -28 49 -33 49 -6 0 -8 3 -4 6 3 3 -5 18 -18 32
-51 58 -71 78 -87 91 -22 17 -170 63 -163 50 8 -12 1 -11 -29 3 -14 6 -28 19
-31 29 -3 9 -12 20 -20 23 -8 3 -15 13 -15 21 0 9 -4 14 -9 11 -5 -3 -12 2
-16 12 -14 39 -51 82 -70 82 -28 0 -100 -43 -100 -59 0 -8 11 -21 24 -29 24
-16 24 -16 10 6 -12 20 -12 24 1 32 8 6 31 9 50 8 36 -3 61 -30 120 -127 13
-23 48 -58 76 -77 47 -32 52 -40 58 -82 13 -102 16 -115 38 -159 12 -25 33
-55 45 -66 12 -12 33 -33 47 -46 13 -13 26 -38 29 -55 10 -62 14 -69 48 -87
19 -10 29 -18 22 -19 -8 0 -10 -12 -6 -35 l6 -35 -40 3 c-22 2 -44 6 -49 10
-5 3 -27 8 -49 12 -22 4 -46 14 -53 23 -11 14 -12 14 -12 -5 0 -31 32 -53 78
-53 24 0 44 -6 49 -14 4 -7 19 -19 32 -26 32 -17 12 -28 -42 -24 l-42 3 57
-26 c44 -21 57 -33 62 -55 4 -19 13 -29 31 -34 15 -4 31 -17 36 -32 10 -25 4
-62 -10 -62 -14 0 -11 -126 3 -146 12 -16 13 -15 9 11 -8 52 -3 109 12 125 13
12 20 12 52 1 58 -21 88 -65 78 -113 -8 -36 -29 -46 -50 -24 -17 17 -45 22
-45 8 0 -4 10 -12 23 -17 23 -10 30 -46 11 -52 -7 -2 -19 3 -28 12 -9 9 -16
12 -16 6 0 -6 18 -28 39 -50 29 -30 38 -46 34 -61 -4 -16 -8 -18 -14 -8 -5 8
-8 2 -6 -17 2 -35 16 -48 33 -34 9 7 18 3 30 -16 15 -23 15 -28 3 -36 -8 -5
-21 -8 -30 -5 -14 3 -39 -23 -39 -41 0 -13 57 -73 63 -67 3 4 -5 17 -19 31
-14 14 -23 30 -21 36 5 16 57 25 84 16 22 -8 83 17 83 34 0 12 30 8 31 -5 1
-7 3 -20 4 -28 1 -8 3 -21 4 -27 0 -7 10 -13 21 -13 13 0 20 -7 20 -19 0 -24
18 -37 31 -24 6 6 2 16 -10 27 -16 14 -18 23 -10 37 7 15 6 19 -6 19 -8 0 -15
7 -15 15 0 8 7 15 15 15 8 0 15 5 15 10 0 6 7 10 16 10 14 0 14 -3 4 -15 -21
-25 14 -19 36 6 14 16 15 23 7 26 -20 7 -15 20 10 27 18 5 20 8 7 16 -13 9
-12 12 4 25 19 15 19 15 -2 15 -13 0 -22 -6 -22 -15 0 -9 -6 -18 -14 -21 -8
-3 -13 -11 -10 -18 5 -13 -25 -31 -67 -40 -22 -5 -30 1 -53 36 -16 25 -24 48
-21 59 4 11 10 17 15 14 5 -3 10 -1 12 5 2 6 16 6 41 -1 31 -8 45 -7 73 6 19
9 39 13 46 9 7 -4 8 -3 4 4 -4 7 2 16 16 21 13 5 38 25 57 45 26 27 32 38 23
49 -9 10 -5 17 19 31 36 21 48 15 21 -10 -11 -11 -22 -28 -26 -39 -8 -25 -52
-75 -66 -75 -5 0 -10 -9 -10 -20 0 -14 7 -20 24 -20 13 0 31 -3 40 -6 12 -4
22 6 36 37 l21 44 -7 -45 c-7 -46 -29 -90 -45 -90 -6 0 -12 -8 -16 -17 -3 -10
-13 -26 -21 -35 -9 -11 -11 -18 -4 -18 6 0 15 8 21 18 8 14 12 15 22 5 10 -10
10 -13 1 -13 -7 0 -12 -5 -12 -11 0 -8 5 -7 15 1 12 10 19 10 27 2 8 -8 5 -21
-12 -49 l-22 -38 25 23 c16 15 27 20 32 13 10 -16 42 -13 49 5 3 8 10 12 16 9
13 -8 13 -65 0 -65 -6 0 -10 -8 -8 -17 4 -22 -41 -30 -71 -14 -13 8 -22 8 -26
1 -4 -6 7 -13 24 -16 17 -4 31 -10 31 -15 0 -11 -126 -69 -149 -69 -11 0 -21
5 -23 11 -6 18 -48 -12 -48 -34 0 -17 1 -17 16 -3 10 11 21 13 32 7 20 -11
129 -2 112 9 -9 5 -5 10 11 15 13 4 36 16 51 26 35 25 50 24 19 -1 -20 -18
-21 -21 -6 -26 10 -4 21 -1 26 7 5 8 9 10 9 4 0 -5 7 0 15 12 8 12 30 29 47
38 32 16 33 15 58 -14 27 -31 50 -31 50 0 0 15 7 19 35 19 34 0 35 -1 29 -27
-4 -16 -11 -38 -15 -51 -14 -36 -11 -53 8 -50 11 2 19 -5 21 -17 4 -18 3 -18
-14 -5 -17 13 -18 13 -8 0 14 -19 25 -62 14 -55 -5 3 -14 -11 -19 -32 -11 -41
-36 -142 -45 -185 -4 -16 -12 -28 -19 -28 -6 0 -24 -14 -39 -32 -39 -48 -41
-31 -6 37 17 33 35 74 39 90 l9 30 -25 -30 c-13 -16 -29 -42 -36 -57 -6 -16
-18 -28 -27 -28 -8 0 -43 -29 -77 -63 -90 -93 -173 -128 -220 -93 -17 12 -18
17 -6 38 18 34 130 152 138 145 7 -8 39 54 46 90 5 27 4 27 -27 -11 -17 -21
-60 -73 -96 -115 -87 -101 -100 -120 -100 -152 0 -24 5 -28 38 -33 20 -3 63 0
95 8 48 11 56 11 46 0 -6 -8 -8 -14 -5 -14 4 0 -2 -13 -14 -30 -12 -16 -19
-30 -15 -30 14 0 85 46 85 56 0 5 23 36 51 67 54 61 79 69 89 29 7 -32 24 -33
28 -2 4 25 19 50 31 50 4 0 5 -18 3 -40 -2 -22 1 -54 8 -72 33 -89 31 -122 -9
-158 -9 -8 -14 -14 -12 -13 2 2 10 -2 17 -8 9 -7 17 2 31 40 l19 51 32 -53
c85 -140 110 -300 49 -309 -15 -2 -23 -13 -28 -36 -7 -37 -29 -67 -29 -41 -1
10 -4 9 -15 -5 -13 -17 -18 -18 -60 -6 -26 7 -52 19 -60 26 -19 19 -65 29 -65
14 0 -7 8 -19 17 -26 16 -12 16 -15 3 -25 -11 -8 -12 -12 -2 -16 7 -2 19 -11
27 -20 8 -8 15 -10 15 -4 0 11 43 5 71 -10 17 -9 17 -11 -2 -44 -20 -34 -20
-35 -2 -35 11 0 32 14 48 30 32 34 55 39 55 13 0 -15 2 -16 10 -3 7 12 12 12
22 2 9 -9 8 -15 -8 -27 -26 -20 -31 -19 -37 7 -11 42 -20 7 -19 -69 3 -108 32
-192 99 -292 57 -85 127 -150 192 -178 20 -8 72 -19 116 -24 52 -5 83 -13 91
-24 6 -8 15 -15 20 -15 5 0 24 -16 43 -35 l35 -35 -22 -67 c-11 -38 -24 -78
-27 -90 -4 -13 -22 -46 -41 -74 -19 -28 -34 -63 -34 -78 1 -24 2 -23 20 14 11
22 20 33 20 25 0 -13 1 -13 10 0 8 12 10 11 10 -7 0 -12 5 -25 11 -29 6 -3 9
-17 6 -30 -2 -13 0 -24 5 -24 19 0 -5 -22 -39 -36 -32 -14 -34 -17 -27 -47 3
-18 28 -75 55 -128 27 -53 53 -118 58 -143 11 -58 19 -67 38 -41 11 15 14 43
12 115 -2 60 1 103 9 117 9 17 9 27 -3 50 -20 38 -19 79 3 95 9 7 24 27 33 43
9 17 21 29 28 27 16 -3 62 22 85 47 14 15 17 29 12 52 -4 23 -1 38 10 50 21
23 10 56 -41 134 -34 51 -65 75 -51 40 3 -8 1 -15 -5 -15 -6 0 -7 -5 -4 -11 5
-6 0 -6 -12 1 -45 29 -82 121 -69 174 6 25 52 42 59 22 3 -7 14 -5 33 6 41 24
40 35 -4 34 -28 -1 -38 3 -35 12 3 6 9 12 13 12 4 0 10 10 14 22 9 35 -37 124
-76 148 -66 40 -77 19 -23 -49 19 -24 35 -48 35 -52 0 -5 -15 -13 -32 -18 -26
-7 -28 -9 -10 -10 48 -2 16 -62 -41 -77 -19 -4 -25 -9 -17 -14 9 -6 7 -11 -8
-19 -32 -17 -39 -14 -63 27 -38 63 -69 90 -120 103 l-48 13 -7 54 c-7 55 4
113 28 145 17 21 41 8 43 -25 2 -29 45 -37 81 -13 25 16 33 37 12 32 -7 -1
-13 6 -12 16 3 67 4 68 24 62 22 -7 26 6 10 35 -7 14 -5 19 10 23 30 8 24 30
-12 48 -17 8 -33 20 -35 26 -2 6 40 21 96 34 l100 25 65 -21 c36 -11 66 -23
66 -26 0 -7 -32 -20 -90 -37 -31 -10 -29 -10 20 -5 30 3 60 9 66 14 6 5 37 0
71 -10 81 -25 88 -30 66 -47 -24 -18 -2 -18 39 0 18 8 51 18 73 21 51 9 125
81 125 123 0 25 -2 24 -30 -20 -29 -46 -75 -86 -86 -75 -14 14 81 127 105 127
9 0 21 8 27 18 5 9 21 35 34 57 l24 40 -26 -27 c-15 -15 -33 -37 -42 -50 -10
-14 -16 -17 -16 -8 0 9 -4 8 -15 -6 -13 -18 -14 -18 -8 6 l6 25 -19 -22 c-10
-12 -24 -29 -29 -39 -15 -24 -58 -10 -50 17 4 10 2 19 -3 19 -11 0 -32 45 -32
69 0 10 -9 39 -21 65 -15 36 -19 57 -13 91 7 53 -6 75 -45 75 -14 0 -37 9 -50
19 l-24 19 16 58 17 58 -38 -42 c-35 -40 -93 -68 -114 -56 -6 4 -8 18 -5 32
l5 26 -19 -25 c-10 -13 -19 -27 -19 -31 0 -13 -58 -38 -89 -38 -16 0 -41 4
-56 10 -26 10 -26 10 -8 34 19 25 56 52 138 99 49 28 45 29 -22 9 -31 -10 -47
0 -20 12 21 9 -85 -5 -144 -20 -54 -13 -108 -18 -81 -7 6 2 12 11 12 18 0 7
20 20 45 28 24 9 64 29 89 46 25 17 52 31 60 31 9 0 16 5 16 11 0 6 9 8 20 4
14 -5 20 -2 20 10 0 14 7 15 45 10 42 -7 45 -6 55 19 5 15 14 24 20 21 5 -3
25 -3 44 1 33 6 35 8 33 42 l-2 36 55 11 c56 11 61 18 45 58 -4 10 -3 17 4 17
6 0 11 -4 11 -9 0 -5 14 -3 30 5 17 9 30 20 30 25 0 23 21 6 27 -21 4 -24 10
-30 33 -30 39 0 42 8 14 51 -27 44 -30 59 -11 59 8 0 22 9 33 21 16 17 26 19
69 14 36 -4 46 -3 35 4 -8 6 -41 11 -72 11 -71 0 -73 12 -14 60 34 28 39 36
27 42 -10 4 -4 7 17 7 17 1 32 5 32 11 0 5 12 9 26 8 24 -2 42 -18 101 -95 31
-38 29 -14 -3 49 l-26 52 28 24 c16 13 23 21 16 17 -11 -6 -11 -3 -1 13 7 11
33 26 57 33 28 8 47 20 54 35 6 12 16 20 23 17 8 -2 23 0 34 7 17 8 19 15 11
29 -9 18 -5 31 11 31 5 0 6 -7 3 -15 -8 -19 13 -19 50 0 15 8 34 15 41 15 8 0
27 11 43 25 16 13 78 54 138 90 60 36 136 89 169 119 33 29 79 70 102 91 24
20 53 53 65 73 12 21 28 41 35 45 7 4 13 22 13 39 0 19 9 41 22 55 18 20 19
23 5 23 -39 0 1 52 58 76 41 17 54 34 26 34 -12 0 -21 4 -21 9 0 5 -8 11 -17
13 -12 3 6 15 47 35 69 33 227 165 248 205 22 44 72 208 72 238 l0 29 -47 -14
c-57 -18 -53 -17 -53 -7 0 27 97 102 132 102 9 0 33 10 53 21 26 15 34 26 30
38 -4 9 -9 28 -12 43 -3 15 -9 26 -13 23 -15 -9 -20 28 -9 62 9 28 19 133 12
133 -1 0 -4 -3 -6 -7z m-3902 -375 c15 -7 24 -17 21 -25 -4 -10 1 -12 20 -7
13 4 23 2 22 -3 -2 -4 15 -28 38 -51 41 -43 88 -124 82 -142 -2 -6 -15 -3 -32
5 -39 21 -43 19 -17 -9 16 -17 20 -29 14 -40 -7 -13 -12 -12 -37 9 -37 32 -45
25 -17 -13 28 -39 27 -46 -6 -37 -74 18 -111 80 -119 196 -4 68 -3 71 16 66
28 -7 25 9 -5 29 -44 29 -29 45 20 22z m3535 -109 c0 -17 -4 -28 -10 -24 -5 3
-10 17 -10 31 0 13 5 24 10 24 6 0 10 -14 10 -31z m-135 -70 c5 -20 -2 -34
-31 -68 -21 -23 -50 -49 -66 -57 -28 -15 -29 -14 -25 10 5 38 64 117 85 114
13 -2 16 3 14 22 -3 31 14 15 23 -21z m165 -4 c0 -8 -4 -15 -10 -15 -5 0 -7 7
-4 15 4 8 8 15 10 15 2 0 4 -7 4 -15z m-12 -38 c14 3 19 -7 28 -54 8 -41 8
-60 0 -65 -14 -9 -14 -9 -30 48 -7 27 -15 56 -18 64 -3 8 -3 12 -1 9 2 -4 12
-5 21 -2z m-126 -32 c3 -13 -1 -33 -8 -44 -13 -17 -94 -71 -109 -71 -12 0 94
139 106 140 4 0 9 -11 11 -25z m-3227 -26 c4 -11 4 -23 1 -27 -10 -9 -39 25
-32 37 11 17 24 13 31 -10z m221 -66 c-9 -9 -64 17 -70 33 -4 10 6 9 35 -7 23
-11 38 -23 35 -26z m3079 -1 c-15 -16 -16 -15 -4 12 7 15 15 23 17 16 3 -7 -3
-19 -13 -28z m-3350 -2 c3 -5 -1 -10 -10 -10 -9 0 -13 5 -10 10 3 6 8 10 10
10 2 0 7 -4 10 -10z m280 -27 c40 -19 47 -43 12 -43 -31 0 -67 27 -61 45 7 18
6 19 49 -2z m3145 -7 c-14 -12 -27 -19 -28 -14 -2 4 -8 6 -13 2 -5 -3 -9 -3
-9 0 0 7 52 35 65 36 5 0 -2 -11 -15 -24z m-3322 -46 c6 -16 -23 0 -63 35
l-30 27 45 -25 c24 -14 46 -30 48 -37z m3169 34 c-3 -3 -12 -4 -19 -1 -8 3 -5
6 6 6 11 1 17 -2 13 -5z m-167 -9 c0 -2 -15 -12 -32 -20 l-33 -16 25 20 c24
20 40 26 40 16z m234 -17 c-39 -45 -45 -50 -59 -44 -22 8 -18 19 18 44 43 30
67 30 41 0z m-3332 -7 c7 -10 17 -19 23 -19 5 0 11 -5 13 -11 6 -18 -58 9 -69
30 -13 26 15 26 33 0z m3163 -10 c-20 -18 -104 -55 -111 -48 -2 2 20 14 49 28
28 13 54 27 55 32 2 4 9 7 15 7 6 0 3 -8 -8 -19z m-256 -25 c-2 -2 -15 -9 -29
-15 -24 -11 -24 -11 -6 3 16 13 49 24 35 12z m-2783 -20 c25 -19 13 -29 -20
-17 -23 9 -26 8 -26 -9 0 -11 -5 -20 -10 -20 -6 0 -9 14 -8 30 2 23 7 30 23
30 12 0 30 -6 41 -14z m479 -73 c31 -36 31 -40 -2 -46 -23 -4 -54 4 -71 18 -6
5 30 55 40 55 5 0 20 -12 33 -27z m-560 -41 c-3 -3 -11 0 -18 7 -9 10 -8 11 6
5 10 -3 15 -9 12 -12z m2275 -98 c-8 -8 -23 -20 -34 -25 -15 -7 -13 -3 7 15
31 29 47 35 27 10z m860 -24 c0 -5 -4 -10 -10 -10 -5 0 -10 5 -10 10 0 6 5 10
10 10 6 0 10 -4 10 -10z m-51 -107 c-22 -28 -69 -72 -69 -64 0 12 61 81 72 81
6 0 5 -7 -3 -17z m-79 -78 c0 -25 -194 -175 -225 -175 -7 0 -15 11 -18 25 -4
23 1 28 42 47 25 11 48 24 51 27 3 4 26 15 51 24 26 10 55 27 64 37 17 19 35
26 35 15z m-2762 -93 c6 -18 -15 -14 -22 4 -4 10 -1 14 6 12 6 -2 14 -10 16
-16z m30 -120 c12 10 14 9 11 -7 -6 -27 -43 -26 -47 0 -3 16 -1 18 9 8 10 -10
16 -10 27 -1z m2331 -31 c11 -7 10 -11 -7 -20 -15 -8 -21 -8 -25 2 -3 9 -9 8
-24 -3 -10 -8 -8 -5 5 8 26 24 31 26 51 13z m-19 -44 c0 -2 -10 -12 -21 -23
-22 -19 -22 -19 -10 4 10 18 31 31 31 19z m-2360 -52 c7 -9 10 -18 7 -21 -10
-11 -37 5 -37 21 0 19 14 19 30 0z m1766 -138 c5 5 -9 -11 -31 -34 -38 -40
-65 -54 -65 -34 0 6 5 13 10 16 6 3 7 18 4 32 -5 19 -2 30 11 40 16 11 22 10
40 -7 12 -11 26 -17 31 -13z m-772 -89 c-6 -9 -44 3 -44 14 0 5 5 19 12 31 11
22 12 22 24 -8 7 -16 10 -33 8 -37z m650 20 c-9 -14 -23 2 -17 18 4 12 8 13
14 3 4 -7 5 -17 3 -21z m170 7 c-6 -16 -24 -21 -24 -7 0 11 11 22 21 22 5 0 6
-7 3 -15z m7 -36 c-13 -11 -26 -17 -29 -14 -7 6 29 34 43 34 6 0 -1 -9 -14
-20z m-791 -4 c0 -8 -4 -15 -10 -15 -5 0 -7 7 -4 15 4 8 8 15 10 15 2 0 4 -7
4 -15z m-46 -17 c19 -13 35 -27 36 -31 0 -8 -77 -44 -107 -49 -10 -2 -19 4
-21 15 -4 18 34 87 48 87 5 0 24 -10 44 -22z m-134 -18 c0 -3 -9 -6 -20 -7
-17 -1 -18 1 -8 17 9 14 14 16 20 7 4 -7 8 -14 8 -17z m30 -114 c0 -3 -4 -8
-10 -11 -5 -3 -10 -1 -10 4 0 6 5 11 10 11 6 0 10 -2 10 -4z m964 -67 c-9 -16
-20 -10 -21 12 -2 17 1 18 12 9 8 -7 12 -16 9 -21z m-918 8 c3 -3 1 -14 -5
-25 -6 -12 -11 -27 -10 -34 0 -10 2 -10 6 -1 3 10 8 9 20 -2 8 -8 22 -15 32
-15 12 0 18 -8 18 -27 1 -38 20 -83 35 -83 9 0 9 3 0 12 -15 15 -16 42 -1 32
6 -3 15 0 20 7 6 10 9 11 9 2 0 -7 7 -13 15 -13 10 0 15 -11 16 -32 1 -27 2
-29 6 -8 2 14 11 40 19 58 15 31 17 32 37 19 12 -8 39 -19 60 -26 25 -9 39
-20 43 -37 7 -27 20 -30 48 -9 22 16 76 20 76 6 0 -24 -148 -86 -252 -105
l-38 -7 -1 38 -1 38 -10 -35 c-5 -19 -14 -52 -19 -72 -8 -31 -14 -38 -34 -38
-14 0 -25 5 -25 10 0 6 -8 10 -18 10 -18 0 -70 64 -87 105 -4 11 -9 15 -12 8
-2 -6 12 -36 31 -67 20 -30 36 -60 36 -66 0 -6 7 -22 16 -36 22 -32 13 -39
-17 -15 -33 26 -99 62 -99 54 0 -3 20 -25 45 -49 34 -32 45 -49 45 -73 0 -40
18 -78 40 -84 13 -3 19 -17 22 -52 5 -68 -4 -75 -49 -37 -21 18 -55 41 -75 52
-23 12 -40 30 -44 46 -4 14 -9 23 -12 20 -11 -11 -32 17 -32 43 0 20 2 23 10
11 5 -8 10 -11 10 -6 0 11 -50 119 -59 126 -18 14 -32 70 -32 124 0 57 8 109
32 199 11 43 34 52 26 9 -3 -15 -2 -34 4 -42 7 -13 9 -13 10 0 0 8 4 4 8 -10
7 -23 8 -22 15 15 11 56 29 73 77 70 22 -1 42 -5 45 -8z m404 -47 c0 -21 9
-39 26 -55 25 -23 25 -25 7 -25 -25 0 -46 23 -49 56 -2 14 -8 32 -15 40 -9 11
-7 14 10 14 17 0 21 -6 21 -30z m220 -70 c0 -5 -7 -10 -16 -10 -8 0 -12 5 -9
10 3 6 10 10 16 10 5 0 9 -4 9 -10z m-828 -254 c-7 -12 -31 35 -31 59 0 14 5
10 18 -15 10 -19 15 -39 13 -44z m391 20 c3 -8 -1 -17 -9 -20 -26 -10 -34 -7
-34 14 0 23 35 28 43 6z m-358 -66 c21 -41 19 -51 -5 -15 -11 17 -20 33 -20
38 0 15 10 6 25 -23z m565 -149 c5 -11 10 -24 10 -30 0 -12 -38 -9 -64 6 -18
10 -17 11 5 27 30 21 36 20 49 -3z m-230 -1 c0 -5 -4 -10 -10 -10 -5 0 -10 5
-10 10 0 6 5 10 10 10 6 0 10 -4 10 -10z m-160 -137 c15 -29 24 -53 18 -53 -6
0 -7 -7 -4 -16 8 -22 -98 -164 -112 -149 -4 4 -1 10 6 12 10 4 10 10 -3 29
-14 22 -14 28 -1 55 11 22 14 55 11 131 l-4 100 30 -28 c17 -16 43 -52 59 -81z
m183 81 c9 -9 -4 -35 -14 -28 -5 3 -9 12 -9 20 0 14 12 19 23 8z m457 -21 c39
-27 70 -64 102 -120 17 -29 34 -53 39 -53 12 0 11 -47 -1 -71 -13 -23 -49 -25
-93 -5 -18 8 -43 17 -57 19 -14 3 -45 11 -70 17 -28 7 -108 10 -214 8 -149 -3
-170 -1 -179 14 -12 19 6 48 30 48 10 0 12 6 8 20 -7 22 24 130 37 130 18 0
54 -23 119 -76 67 -54 107 -73 69 -32 -12 13 -17 24 -11 26 5 2 7 18 4 36 -6
41 8 52 46 37 22 -10 33 -9 57 4 38 20 84 19 114 -2z m127 -98 c0 -8 -4 -12
-9 -9 -5 3 -6 10 -3 15 9 13 12 11 12 -6z m-916 -112 c-8 -15 -10 -15 -11 -2
0 17 10 32 18 25 2 -3 -1 -13 -7 -23z m575 -22 c-7 -11 -126 -44 -133 -37 -6
6 35 24 82 36 42 11 57 11 51 1z m-149 -23 c-24 -21 -38 -23 -55 -6 -20 20
-14 25 32 24 42 -1 43 -1 23 -18z m579 -13 c-8 -8 -18 -15 -22 -15 -3 0 -1 7
6 15 7 8 17 15 22 15 5 0 3 -7 -6 -15z m-93 -36 c-17 -18 -28 -20 -63 -14 -61
10 -30 31 50 34 l34 1 -21 -21z m-873 -86 c0 -23 -22 -82 -34 -92 -12 -10 -17
-7 -28 16 -14 26 -13 29 16 55 31 28 46 34 46 21z m337 -135 c-3 -8 -6 -5 -6
6 -1 11 2 17 5 13 3 -3 4 -12 1 -19z m-167 -37 c0 -5 3 -16 6 -25 7 -18 -4
-20 -25 -7 -8 5 -11 16 -8 25 7 17 27 22 27 7z m132 -218 c37 -41 63 -93 37
-77 -7 4 -10 1 -7 -7 3 -8 10 -13 16 -12 16 4 22 -25 7 -31 -16 -6 -26 6 -50
64 -10 25 -27 53 -37 63 -21 21 -22 27 -5 27 7 0 25 -12 39 -27z m-112 2 c7
-9 8 -15 2 -15 -5 0 -12 7 -16 15 -3 8 -4 15 -2 15 2 0 9 -7 16 -15z m320
-134 c11 -21 14 -101 4 -101 -16 0 -74 90 -74 115 0 3 13 5 30 5 19 0 33 -7
40 -19z m85 -161 c3 -5 1 -10 -4 -10 -6 0 -11 5 -11 10 0 6 2 10 4 10 3 0 8
-4 11 -10z m115 -160 c0 -5 -5 -10 -11 -10 -5 0 -7 5 -4 10 3 6 8 10 11 10 2
0 4 -4 4 -10z m-35 -60 c0 -20 -38 -41 -55 -30 -12 7 -12 12 -2 22 9 9 12 8
12 -6 0 -9 5 -14 10 -11 6 3 10 15 10 26 0 12 5 19 13 17 6 -3 12 -10 12 -18z"/>
<path d="M2536 2757 c3 -10 9 -15 12 -12 3 3 0 11 -7 18 -10 9 -11 8 -5 -6z"/>
<path d="M2580 2730 c0 -5 5 -10 10 -10 6 0 10 5 10 10 0 6 -4 10 -10 10 -5 0
-10 -4 -10 -10z"/>
<path d="M3076 2691 c-3 -4 6 -6 19 -3 14 2 25 6 25 8 0 8 -39 4 -44 -5z"/>
<path d="M2630 2541 c0 -12 23 -31 37 -31 10 0 11 5 5 17 -10 16 -42 28 -42
14z"/>
<path d="M1107 4776 c-5 -14 10 -36 25 -36 13 0 9 27 -6 39 -10 9 -15 8 -19
-3z"/>
<path d="M5020 4683 c-19 -9 -30 -18 -23 -20 11 -4 73 23 73 32 0 8 -12 5 -50
-12z"/>
<path d="M1220 4680 c0 -13 11 -13 30 0 12 8 11 10 -7 10 -13 0 -23 -4 -23
-10z"/>
<path d="M4625 4632 c-30 -25 -52 -65 -47 -84 8 -38 32 -10 32 37 0 24 22 49
33 38 4 -3 7 1 7 10 0 21 0 21 -25 -1z"/>
<path d="M4610 4541 c0 -5 7 -12 16 -15 14 -5 15 -4 4 9 -14 17 -20 19 -20 6z"/>
<path d="M1120 4510 c-11 -7 -11 -10 -2 -10 9 0 10 -5 2 -19 -5 -11 -10 -29
-10 -40 0 -11 -7 -21 -16 -23 -14 -3 -13 -7 6 -30 23 -30 20 -48 -11 -48 -21
0 -25 -21 -9 -49 6 -13 17 -17 34 -14 22 4 24 8 16 29 -6 15 -6 42 1 73 5 26
9 52 8 57 -2 5 1 20 5 33 7 21 12 23 48 17 49 -8 42 9 -10 24 -45 12 -43 12
-62 0z"/>
<path d="M4771 4504 c0 -11 3 -14 6 -6 3 7 2 16 -1 19 -3 4 -6 -2 -5 -13z"/>
<path d="M984 4496 c-4 -11 -1 -21 7 -27 17 -11 26 18 10 34 -7 7 -12 5 -17
-7z"/>
<path d="M4640 4506 c0 -2 7 -7 16 -10 8 -3 12 -2 9 4 -6 10 -25 14 -25 6z"/>
<path d="M1161 4411 c-8 -5 -10 -14 -6 -21 6 -9 10 -8 17 4 12 21 7 28 -11 17z"/>
<path d="M1260 4235 c0 -4 14 -23 30 -42 30 -34 42 -90 18 -80 -7 3 -31 13
-53 22 l-40 17 34 -36 c37 -38 80 -53 107 -38 15 9 15 10 -5 17 -19 6 -22 12
-16 33 3 15 11 32 17 37 8 7 9 6 4 -2 -8 -15 10 -18 19 -4 3 5 -5 13 -17 17
-13 4 -27 12 -33 19 -14 18 -65 49 -65 40z"/>
<path d="M2360 4190 c0 -5 5 -10 11 -10 7 0 10 -14 7 -35 -2 -22 0 -34 6 -32
15 5 30 52 23 71 -7 17 -47 23 -47 6z"/>
<path d="M4210 4190 c0 -5 5 -10 11 -10 5 0 7 5 4 10 -3 6 -8 10 -11 10 -2 0
-4 -4 -4 -10z"/>
<path d="M2315 4170 c-3 -5 -1 -10 4 -10 6 0 11 5 11 10 0 6 -2 10 -4 10 -3 0
-8 -4 -11 -10z"/>
<path d="M1100 4135 c45 -17 54 -18 39 -2 -7 7 -26 14 -43 14 l-31 2 35 -14z"/>
<path d="M3970 4055 c-14 -8 -20 -14 -14 -15 5 0 19 7 30 15 24 18 16 19 -16
0z"/>
<path d="M2830 4030 c0 -5 -11 -12 -25 -16 -36 -9 -23 -17 14 -9 28 6 45 35
21 35 -5 0 -10 -4 -10 -10z"/>
<path d="M1460 4010 c20 -13 33 -13 25 0 -3 6 -14 10 -23 10 -15 0 -15 -2 -2
-10z"/>
<path d="M2451 3949 c-14 -40 -14 -39 4 -33 8 4 15 1 15 -6 0 -7 8 -10 20 -7
24 6 32 -3 20 -23 -11 -18 9 -60 29 -60 14 0 14 2 1 11 -12 9 -11 10 7 6 l22
-5 -24 36 c-16 24 -22 44 -19 59 8 29 -11 53 -41 53 -17 0 -26 -9 -34 -31z"/>
<path d="M2710 3959 c0 -5 10 -9 22 -9 12 0 18 3 14 7 -10 11 -36 12 -36 2z"/>
<path d="M2663 3933 c9 -9 20 -13 24 -9 4 4 1 11 -7 16 -25 16 -35 11 -17 -7z"/>
<path d="M2724 3931 c10 -16 -31 -43 -56 -36 -20 5 -21 4 -5 -5 9 -6 26 -9 36
-5 10 3 24 -1 31 -10 19 -23 27 -18 25 13 -2 32 -12 52 -26 52 -6 0 -8 -4 -5
-9z"/>
<path d="M3473 3913 c9 -2 25 -2 35 0 9 3 1 5 -18 5 -19 0 -27 -2 -17 -5z"/>
<path d="M3535 3910 c-3 -5 -2 -10 4 -10 5 0 13 5 16 10 3 6 2 10 -4 10 -5 0
-13 -4 -16 -10z"/>
<path d="M3217 3884 c-3 -4 -21 -10 -39 -15 l-33 -8 38 2 c31 3 36 0 32 -12
-12 -30 -10 -35 15 -35 21 -1 26 -7 31 -41 l6 -40 2 38 c0 25 -6 49 -19 67
-19 27 -20 29 -3 39 17 10 16 10 -3 11 -11 0 -23 -3 -27 -6z"/>
<path d="M3553 3868 c-23 -30 -24 -41 -2 -21 12 12 20 25 17 28 -3 3 -10 0
-15 -7z"/>
<path d="M3592 3850 c14 -22 24 -19 15 5 -4 8 -11 15 -17 15 -6 0 -6 -7 2 -20z"/>
<path d="M4737 3831 c-3 -14 -1 -18 9 -14 8 3 14 11 14 19 0 21 -17 17 -23 -5z"/>
<path d="M4718 3734 c-15 -30 -23 -54 -18 -54 12 0 61 98 52 104 -4 2 -19 -20
-34 -50z"/>
<path d="M4395 3479 c-11 -17 1 -21 15 -4 8 9 8 15 2 15 -6 0 -14 -5 -17 -11z"/>
<path d="M4270 3370 c0 -5 7 -10 16 -10 8 0 12 5 9 10 -3 6 -10 10 -16 10 -5
0 -9 -4 -9 -10z"/>
<path d="M4416 3272 l-19 -27 24 22 c12 12 21 24 18 27 -2 2 -13 -8 -23 -22z"/>
<path d="M1602 3273 c-6 -3 -9 -9 -6 -15 4 -6 -2 -6 -14 1 -30 16 -38 14 -56
-14 -18 -27 -20 -22 34 -82 25 -28 26 -50 3 -56 -17 -4 -17 -5 0 -6 10 0 20 5
23 13 3 8 14 13 25 11 18 -4 19 0 14 40 -3 24 -1 55 4 69 11 27 -4 47 -27 39z
m-27 -23 c3 -5 2 -10 -4 -10 -5 0 -13 5 -16 10 -3 6 -2 10 4 10 5 0 13 -4 16
-10z m-15 -20 c0 -5 -4 -10 -10 -10 -5 0 -10 5 -10 10 0 6 5 10 10 10 6 0 10
-4 10 -10z m30 -10 c0 -5 -2 -10 -4 -10 -3 0 -8 5 -11 10 -3 6 -1 10 4 10 6 0
11 -4 11 -10z m-20 -41 c0 -6 -4 -7 -10 -4 -5 3 -10 11 -10 16 0 6 5 7 10 4 6
-3 10 -11 10 -16z"/>
<path d="M4125 3267 c-4 -10 -5 -21 -1 -24 10 -10 18 4 13 24 -4 17 -4 17 -12
0z"/>
<path d="M4372 3248 c-7 -7 -12 -18 -12 -26 0 -24 -73 -112 -92 -112 -10 0
-18 -5 -18 -11 0 -5 4 -7 10 -4 6 3 7 -1 4 -9 -3 -9 -10 -14 -14 -11 -4 3 -22
-9 -40 -25 -18 -17 -36 -30 -40 -30 -4 0 -33 -30 -64 -67 -61 -74 -104 -108
-163 -129 -46 -16 -73 -17 -93 -4 -13 9 -13 12 3 21 13 8 15 14 7 29 -15 27
-12 73 5 96 20 26 19 37 -4 25 -10 -6 -24 -24 -31 -41 -8 -19 -19 -30 -29 -28
-16 2 -91 -30 -91 -39 0 -3 11 -2 25 1 l24 6 -4 -67 c-3 -38 -3 -62 1 -55 11
24 35 13 32 -15 -3 -27 -1 -28 48 -31 43 -2 63 4 140 42 132 66 294 213 294
266 0 5 5 10 10 10 6 0 29 39 51 88 23 48 45 95 51 105 12 23 6 31 -10 15z"/>
<path d="M2152 3213 c-19 -13 -25 -13 -39 -2 -15 12 -16 12 -10 -4 4 -10 7
-21 7 -23 0 -11 30 -2 51 15 29 24 22 34 -9 14z"/>
<path d="M4101 3214 c0 -11 3 -14 6 -6 3 7 2 16 -1 19 -3 4 -6 -2 -5 -13z"/>
<path d="M1947 3160 c-21 -25 -21 -30 -2 -30 8 0 15 -3 15 -7 0 -5 4 -14 9
-21 7 -11 14 -11 42 4 19 9 28 19 21 21 -6 3 -9 10 -5 16 4 6 0 8 -10 4 -11
-4 -22 1 -29 13 -16 25 -19 25 -41 0z"/>
<path d="M4085 3147 c-4 -10 -5 -32 -1 -50 4 -19 3 -27 -3 -19 -6 11 -9 9 -13
-6 -8 -29 9 -43 38 -30 28 13 32 28 8 28 -13 0 -14 3 -4 15 7 8 16 12 21 9 17
-10 46 6 58 32 11 25 10 26 -11 19 -57 -18 -76 -17 -81 2 -4 17 -4 17 -12 0z"/>
<path d="M1908 2958 c9 -9 15 -9 24 0 9 9 7 12 -12 12 -19 0 -21 -3 -12 -12z"/>
<path d="M3873 2880 c2 -8 12 -16 23 -17 13 -2 15 -1 4 4 -8 3 -19 11 -23 17
-6 7 -7 6 -4 -4z"/>
<path d="M1970 2820 c-13 -8 -12 -10 3 -10 9 0 17 5 17 10 0 12 -1 12 -20 0z"/>
<path d="M3440 2670 c-8 -5 -12 -12 -9 -15 4 -3 12 1 19 10 14 17 11 19 -10 5z"/>
<path d="M3245 2580 c-15 -16 -15 -20 -3 -20 8 0 23 9 33 20 15 16 15 20 3 20
-8 0 -23 -9 -33 -20z"/>
<path d="M2191 2252 c-1 -52 31 -147 61 -179 31 -33 33 -22 4 21 -14 21 -30
63 -37 94 -6 31 -15 68 -19 82 -7 21 -9 19 -9 -18z"/>
<path d="M2490 2060 c-9 -6 -10 -10 -3 -10 6 0 15 5 18 10 8 12 4 12 -15 0z"/>
<path d="M3018 1503 c12 -2 32 -2 45 0 12 2 2 4 -23 4 -25 0 -35 -2 -22 -4z"/>
</g>
</svg>
